STARTFONT 2.1
COMMENT
COMMENT Converted from OpenType font "IBMPlexMono-Medium.ttf" by "otf2bdf 3.0".
COMMENT
FONT -FreeType-IBM Plex Mono Medium-Medium-R-Normal--8-60-100-100-P-42-ISO10646-1
SIZE 6 100 100
FONTBOUNDINGBOX 7 12 -2 -3
STARTPROPERTIES 19
FOUNDRY "FreeType"
FAMILY_NAME "IBM Plex Mono Medium"
WEIGHT_NAME "Medium"
SLANT "R"
SETWIDTH_NAME "Normal"
ADD_STYLE_NAME ""
PIXEL_SIZE 8
POINT_SIZE 60
RESOLUTION_X 100
RESOLUTION_Y 100
SPACING "P"
AVERAGE_WIDTH 42
CHARSET_REGISTRY "ISO10646"
CHARSET_ENCODING "1"
FONT_ASCENT 8
FONT_DESCENT 2
COPYRIGHT "Copyright 2017 IBM Corp. All rights reserved."
_OTF_FONTFILE "IBMPlexMono-Medium.ttf"
_OTF_PSNAME "IBMPlexMono-Medium"
ENDPROPERTIES
CHARS 930
STARTCHAR 0000
ENCODING 0
SWIDTH 0 0
DWIDTH 0 0
BBX 0 0 0 0
BITMAP
ENDCHAR
STARTCHAR 000D
ENCODING 13
SWIDTH 600 0
DWIDTH 5 0
BBX 0 0 0 0
BITMAP
ENDCHAR
STARTCHAR 0020
ENCODING 32
SWIDTH 600 0
DWIDTH 5 0
BBX 0 0 0 0
BITMAP
ENDCHAR
STARTCHAR 0021
ENCODING 33
SWIDTH 600 0
DWIDTH 5 0
BBX 1 6 2 0
BITMAP
80
80
80
80
00
80
ENDCHAR
STARTCHAR 0022
ENCODING 34
SWIDTH 600 0
DWIDTH 5 0
BBX 3 2 1 4
BITMAP
A0
A0
ENDCHAR
STARTCHAR 0023
ENCODING 35
SWIDTH 600 0
DWIDTH 5 0
BBX 5 6 0 0
BITMAP
70
50
D8
60
F0
60
ENDCHAR
STARTCHAR 0024
ENCODING 36
SWIDTH 600 0
DWIDTH 5 0
BBX 4 7 0 -1
BITMAP
70
B0
60
30
30
F0
20
ENDCHAR
STARTCHAR 0025
ENCODING 37
SWIDTH 600 0
DWIDTH 5 0
BBX 5 6 0 0
BITMAP
48
B0
D0
10
68
B8
ENDCHAR
STARTCHAR 0026
ENCODING 38
SWIDTH 600 0
DWIDTH 5 0
BBX 5 6 0 0
BITMAP
60
B0
40
B8
B0
F8
ENDCHAR
STARTCHAR 0027
ENCODING 39
SWIDTH 600 0
DWIDTH 5 0
BBX 1 2 2 4
BITMAP
80
80
ENDCHAR
STARTCHAR 0028
ENCODING 40
SWIDTH 600 0
DWIDTH 5 0
BBX 2 7 2 -1
BITMAP
C0
80
80
80
80
80
C0
ENDCHAR
STARTCHAR 0029
ENCODING 41
SWIDTH 600 0
DWIDTH 5 0
BBX 2 7 1 -1
BITMAP
80
40
40
40
40
40
80
ENDCHAR
STARTCHAR 002A
ENCODING 42
SWIDTH 600 0
DWIDTH 5 0
BBX 5 4 0 0
BITMAP
20
F8
60
50
ENDCHAR
STARTCHAR 002B
ENCODING 43
SWIDTH 600 0
DWIDTH 5 0
BBX 4 4 0 0
BITMAP
20
F0
20
20
ENDCHAR
STARTCHAR 002C
ENCODING 44
SWIDTH 600 0
DWIDTH 5 0
BBX 1 2 2 -1
BITMAP
80
80
ENDCHAR
STARTCHAR 002D
ENCODING 45
SWIDTH 600 0
DWIDTH 5 0
BBX 3 1 1 2
BITMAP
E0
ENDCHAR
STARTCHAR 002E
ENCODING 46
SWIDTH 600 0
DWIDTH 5 0
BBX 1 1 2 0
BITMAP
80
ENDCHAR
STARTCHAR 002F
ENCODING 47
SWIDTH 600 0
DWIDTH 5 0
BBX 3 7 1 -1
BITMAP
20
20
40
40
80
80
80
ENDCHAR
STARTCHAR 0030
ENCODING 48
SWIDTH 600 0
DWIDTH 5 0
BBX 4 6 0 0
BITMAP
20
50
90
B0
90
70
ENDCHAR
STARTCHAR 0031
ENCODING 49
SWIDTH 600 0
DWIDTH 5 0
BBX 5 6 0 0
BITMAP
20
60
A0
20
20
78
ENDCHAR
STARTCHAR 0032
ENCODING 50
SWIDTH 600 0
DWIDTH 5 0
BBX 4 6 0 0
BITMAP
60
90
10
20
40
F0
ENDCHAR
STARTCHAR 0033
ENCODING 51
SWIDTH 600 0
DWIDTH 5 0
BBX 4 6 0 0
BITMAP
60
90
10
30
10
F0
ENDCHAR
STARTCHAR 0034
ENCODING 52
SWIDTH 600 0
DWIDTH 5 0
BBX 5 6 0 0
BITMAP
10
30
50
90
F8
10
ENDCHAR
STARTCHAR 0035
ENCODING 53
SWIDTH 600 0
DWIDTH 5 0
BBX 4 6 0 0
BITMAP
70
40
A0
50
10
F0
ENDCHAR
STARTCHAR 0036
ENCODING 54
SWIDTH 600 0
DWIDTH 5 0
BBX 4 6 0 0
BITMAP
30
40
60
D0
90
70
ENDCHAR
STARTCHAR 0037
ENCODING 55
SWIDTH 600 0
DWIDTH 5 0
BBX 4 6 0 0
BITMAP
F0
90
10
20
20
60
ENDCHAR
STARTCHAR 0038
ENCODING 56
SWIDTH 600 0
DWIDTH 5 0
BBX 4 6 0 0
BITMAP
60
90
50
70
90
70
ENDCHAR
STARTCHAR 0039
ENCODING 57
SWIDTH 600 0
DWIDTH 5 0
BBX 4 6 0 0
BITMAP
60
90
90
70
10
60
ENDCHAR
STARTCHAR 003A
ENCODING 58
SWIDTH 600 0
DWIDTH 5 0
BBX 1 4 2 0
BITMAP
80
00
00
80
ENDCHAR
STARTCHAR 003B
ENCODING 59
SWIDTH 600 0
DWIDTH 5 0
BBX 1 5 2 -1
BITMAP
80
00
00
80
80
ENDCHAR
STARTCHAR 003C
ENCODING 60
SWIDTH 600 0
DWIDTH 5 0
BBX 3 5 1 0
BITMAP
20
40
80
40
20
ENDCHAR
STARTCHAR 003D
ENCODING 61
SWIDTH 600 0
DWIDTH 5 0
BBX 4 3 0 1
BITMAP
F0
00
F0
ENDCHAR
STARTCHAR 003E
ENCODING 62
SWIDTH 600 0
DWIDTH 5 0
BBX 3 5 1 0
BITMAP
80
C0
20
40
80
ENDCHAR
STARTCHAR 003F
ENCODING 63
SWIDTH 600 0
DWIDTH 5 0
BBX 3 6 1 0
BITMAP
C0
A0
20
40
00
40
ENDCHAR
STARTCHAR 0040
ENCODING 64
SWIDTH 600 0
DWIDTH 5 0
BBX 4 7 0 -1
BITMAP
20
D0
B0
D0
B0
80
70
ENDCHAR
STARTCHAR 0041
ENCODING 65
SWIDTH 600 0
DWIDTH 5 0
BBX 5 6 0 0
BITMAP
20
60
50
50
70
98
ENDCHAR
STARTCHAR 0042
ENCODING 66
SWIDTH 600 0
DWIDTH 5 0
BBX 3 6 1 0
BITMAP
C0
A0
A0
E0
A0
E0
ENDCHAR
STARTCHAR 0043
ENCODING 67
SWIDTH 600 0
DWIDTH 5 0
BBX 4 6 0 0
BITMAP
20
50
80
80
50
70
ENDCHAR
STARTCHAR 0044
ENCODING 68
SWIDTH 600 0
DWIDTH 5 0
BBX 3 6 1 0
BITMAP
C0
A0
A0
A0
A0
E0
ENDCHAR
STARTCHAR 0045
ENCODING 69
SWIDTH 600 0
DWIDTH 5 0
BBX 3 6 1 0
BITMAP
E0
80
80
E0
80
E0
ENDCHAR
STARTCHAR 0046
ENCODING 70
SWIDTH 600 0
DWIDTH 5 0
BBX 3 6 1 0
BITMAP
E0
80
80
E0
80
80
ENDCHAR
STARTCHAR 0047
ENCODING 71
SWIDTH 600 0
DWIDTH 5 0
BBX 4 6 0 0
BITMAP
20
50
80
B0
90
70
ENDCHAR
STARTCHAR 0048
ENCODING 72
SWIDTH 600 0
DWIDTH 5 0
BBX 3 6 1 0
BITMAP
A0
A0
A0
E0
A0
A0
ENDCHAR
STARTCHAR 0049
ENCODING 73
SWIDTH 600 0
DWIDTH 5 0
BBX 3 6 1 0
BITMAP
E0
40
40
40
40
E0
ENDCHAR
STARTCHAR 004A
ENCODING 74
SWIDTH 600 0
DWIDTH 5 0
BBX 4 6 0 0
BITMAP
70
10
10
10
10
F0
ENDCHAR
STARTCHAR 004B
ENCODING 75
SWIDTH 600 0
DWIDTH 5 0
BBX 4 6 1 0
BITMAP
90
A0
C0
C0
A0
B0
ENDCHAR
STARTCHAR 004C
ENCODING 76
SWIDTH 600 0
DWIDTH 5 0
BBX 3 6 1 0
BITMAP
80
80
80
80
80
E0
ENDCHAR
STARTCHAR 004D
ENCODING 77
SWIDTH 600 0
DWIDTH 5 0
BBX 4 6 0 0
BITMAP
D0
D0
F0
B0
D0
90
ENDCHAR
STARTCHAR 004E
ENCODING 78
SWIDTH 600 0
DWIDTH 5 0
BBX 3 6 1 0
BITMAP
A0
A0
E0
E0
A0
A0
ENDCHAR
STARTCHAR 004F
ENCODING 79
SWIDTH 600 0
DWIDTH 5 0
BBX 4 6 0 0
BITMAP
20
50
90
90
90
70
ENDCHAR
STARTCHAR 0050
ENCODING 80
SWIDTH 600 0
DWIDTH 5 0
BBX 3 6 1 0
BITMAP
C0
A0
A0
E0
80
80
ENDCHAR
STARTCHAR 0051
ENCODING 81
SWIDTH 600 0
DWIDTH 5 0
BBX 4 7 0 -1
BITMAP
20
50
90
90
90
70
30
ENDCHAR
STARTCHAR 0052
ENCODING 82
SWIDTH 600 0
DWIDTH 5 0
BBX 3 6 1 0
BITMAP
C0
A0
A0
E0
A0
A0
ENDCHAR
STARTCHAR 0053
ENCODING 83
SWIDTH 600 0
DWIDTH 5 0
BBX 4 6 0 0
BITMAP
70
50
40
30
10
F0
ENDCHAR
STARTCHAR 0054
ENCODING 84
SWIDTH 600 0
DWIDTH 5 0
BBX 5 6 0 0
BITMAP
F8
20
20
20
20
20
ENDCHAR
STARTCHAR 0055
ENCODING 85
SWIDTH 600 0
DWIDTH 5 0
BBX 3 6 1 0
BITMAP
A0
A0
A0
A0
A0
E0
ENDCHAR
STARTCHAR 0056
ENCODING 86
SWIDTH 600 0
DWIDTH 5 0
BBX 5 6 0 0
BITMAP
88
90
50
50
60
20
ENDCHAR
STARTCHAR 0057
ENCODING 87
SWIDTH 600 0
DWIDTH 5 0
BBX 5 6 0 0
BITMAP
88
88
B0
F0
F0
50
ENDCHAR
STARTCHAR 0058
ENCODING 88
SWIDTH 600 0
DWIDTH 5 0
BBX 5 6 0 0
BITMAP
88
50
60
20
50
98
ENDCHAR
STARTCHAR 0059
ENCODING 89
SWIDTH 600 0
DWIDTH 5 0
BBX 5 6 0 0
BITMAP
88
50
50
20
20
20
ENDCHAR
STARTCHAR 005A
ENCODING 90
SWIDTH 600 0
DWIDTH 5 0
BBX 4 6 0 0
BITMAP
F0
10
20
20
40
F0
ENDCHAR
STARTCHAR 005B
ENCODING 91
SWIDTH 600 0
DWIDTH 5 0
BBX 2 7 2 -1
BITMAP
C0
80
80
80
80
80
C0
ENDCHAR
STARTCHAR 005C
ENCODING 92
SWIDTH 600 0
DWIDTH 5 0
BBX 3 7 1 -1
BITMAP
80
80
80
40
40
20
20
ENDCHAR
STARTCHAR 005D
ENCODING 93
SWIDTH 600 0
DWIDTH 5 0
BBX 2 7 1 -1
BITMAP
C0
40
40
40
40
40
C0
ENDCHAR
STARTCHAR 005E
ENCODING 94
SWIDTH 600 0
DWIDTH 5 0
BBX 5 4 0 2
BITMAP
20
60
50
98
ENDCHAR
STARTCHAR 005F
ENCODING 95
SWIDTH 600 0
DWIDTH 5 0
BBX 4 1 0 -2
BITMAP
F0
ENDCHAR
STARTCHAR 0060
ENCODING 96
SWIDTH 600 0
DWIDTH 5 0
BBX 2 1 1 5
BITMAP
C0
ENDCHAR
STARTCHAR 0061
ENCODING 97
SWIDTH 600 0
DWIDTH 5 0
BBX 4 4 0 0
BITMAP
70
10
F0
70
ENDCHAR
STARTCHAR 0062
ENCODING 98
SWIDTH 600 0
DWIDTH 5 0
BBX 3 6 1 0
BITMAP
80
80
E0
A0
A0
E0
ENDCHAR
STARTCHAR 0063
ENCODING 99
SWIDTH 600 0
DWIDTH 5 0
BBX 3 4 1 0
BITMAP
E0
80
80
E0
ENDCHAR
STARTCHAR 0064
ENCODING 100
SWIDTH 600 0
DWIDTH 5 0
BBX 4 6 0 0
BITMAP
10
10
70
90
90
70
ENDCHAR
STARTCHAR 0065
ENCODING 101
SWIDTH 600 0
DWIDTH 5 0
BBX 4 4 0 0
BITMAP
70
90
E0
70
ENDCHAR
STARTCHAR 0066
ENCODING 102
SWIDTH 600 0
DWIDTH 5 0
BBX 3 6 1 0
BITMAP
60
40
E0
40
40
E0
ENDCHAR
STARTCHAR 0067
ENCODING 103
SWIDTH 600 0
DWIDTH 5 0
BBX 5 7 0 -2
BITMAP
10
70
50
60
70
88
70
ENDCHAR
STARTCHAR 0068
ENCODING 104
SWIDTH 600 0
DWIDTH 5 0
BBX 3 6 1 0
BITMAP
80
80
E0
A0
A0
A0
ENDCHAR
STARTCHAR 0069
ENCODING 105
SWIDTH 600 0
DWIDTH 5 0
BBX 3 6 1 0
BITMAP
40
00
C0
40
40
E0
ENDCHAR
STARTCHAR 006A
ENCODING 106
SWIDTH 600 0
DWIDTH 5 0
BBX 3 8 1 -2
BITMAP
60
00
C0
40
40
40
40
C0
ENDCHAR
STARTCHAR 006B
ENCODING 107
SWIDTH 600 0
DWIDTH 5 0
BBX 4 6 1 0
BITMAP
80
80
A0
C0
A0
B0
ENDCHAR
STARTCHAR 006C
ENCODING 108
SWIDTH 600 0
DWIDTH 5 0
BBX 3 6 1 0
BITMAP
C0
40
40
40
40
E0
ENDCHAR
STARTCHAR 006D
ENCODING 109
SWIDTH 600 0
DWIDTH 5 0
BBX 4 4 0 0
BITMAP
F0
B0
B0
B0
ENDCHAR
STARTCHAR 006E
ENCODING 110
SWIDTH 600 0
DWIDTH 5 0
BBX 3 4 1 0
BITMAP
E0
A0
A0
A0
ENDCHAR
STARTCHAR 006F
ENCODING 111
SWIDTH 600 0
DWIDTH 5 0
BBX 4 4 0 0
BITMAP
70
90
90
70
ENDCHAR
STARTCHAR 0070
ENCODING 112
SWIDTH 600 0
DWIDTH 5 0
BBX 3 6 1 -2
BITMAP
E0
A0
A0
E0
80
80
ENDCHAR
STARTCHAR 0071
ENCODING 113
SWIDTH 600 0
DWIDTH 5 0
BBX 4 6 0 -2
BITMAP
70
90
90
70
10
10
ENDCHAR
STARTCHAR 0072
ENCODING 114
SWIDTH 600 0
DWIDTH 5 0
BBX 3 4 1 0
BITMAP
E0
40
40
E0
ENDCHAR
STARTCHAR 0073
ENCODING 115
SWIDTH 600 0
DWIDTH 5 0
BBX 4 4 0 0
BITMAP
70
40
30
F0
ENDCHAR
STARTCHAR 0074
ENCODING 116
SWIDTH 600 0
DWIDTH 5 0
BBX 4 6 0 0
BITMAP
40
40
F0
40
40
30
ENDCHAR
STARTCHAR 0075
ENCODING 117
SWIDTH 600 0
DWIDTH 5 0
BBX 3 4 1 0
BITMAP
A0
A0
A0
E0
ENDCHAR
STARTCHAR 0076
ENCODING 118
SWIDTH 600 0
DWIDTH 5 0
BBX 4 4 0 0
BITMAP
90
50
60
20
ENDCHAR
STARTCHAR 0077
ENCODING 119
SWIDTH 600 0
DWIDTH 5 0
BBX 5 4 0 0
BITMAP
A8
F0
F0
50
ENDCHAR
STARTCHAR 0078
ENCODING 120
SWIDTH 600 0
DWIDTH 5 0
BBX 4 4 0 0
BITMAP
D0
20
60
D0
ENDCHAR
STARTCHAR 0079
ENCODING 121
SWIDTH 600 0
DWIDTH 5 0
BBX 4 6 0 -2
BITMAP
90
50
60
20
20
40
ENDCHAR
STARTCHAR 007A
ENCODING 122
SWIDTH 600 0
DWIDTH 5 0
BBX 3 4 1 0
BITMAP
E0
40
80
E0
ENDCHAR
STARTCHAR 007B
ENCODING 123
SWIDTH 600 0
DWIDTH 5 0
BBX 3 7 1 -1
BITMAP
60
40
40
80
40
40
60
ENDCHAR
STARTCHAR 007C
ENCODING 124
SWIDTH 600 0
DWIDTH 5 0
BBX 1 7 2 -1
BITMAP
80
80
80
80
80
80
80
ENDCHAR
STARTCHAR 007D
ENCODING 125
SWIDTH 600 0
DWIDTH 5 0
BBX 3 7 1 -1
BITMAP
C0
40
80
60
C0
40
C0
ENDCHAR
STARTCHAR 007E
ENCODING 126
SWIDTH 600 0
DWIDTH 5 0
BBX 4 2 0 1
BITMAP
F0
20
ENDCHAR
STARTCHAR 00A0
ENCODING 160
SWIDTH 600 0
DWIDTH 5 0
BBX 0 0 0 0
BITMAP
ENDCHAR
STARTCHAR 00A1
ENCODING 161
SWIDTH 600 0
DWIDTH 5 0
BBX 1 5 2 -1
BITMAP
80
00
80
80
80
ENDCHAR
STARTCHAR 00A2
ENCODING 162
SWIDTH 600 0
DWIDTH 5 0
BBX 3 6 1 -1
BITMAP
40
E0
C0
C0
E0
40
ENDCHAR
STARTCHAR 00A3
ENCODING 163
SWIDTH 600 0
DWIDTH 5 0
BBX 4 6 0 0
BITMAP
30
50
40
E0
40
70
ENDCHAR
STARTCHAR 00A4
ENCODING 164
SWIDTH 600 0
DWIDTH 5 0
BBX 4 5 0 0
BITMAP
F0
50
50
70
90
ENDCHAR
STARTCHAR 00A5
ENCODING 165
SWIDTH 600 0
DWIDTH 5 0
BBX 5 6 0 0
BITMAP
88
50
50
70
20
70
ENDCHAR
STARTCHAR 00A6
ENCODING 166
SWIDTH 600 0
DWIDTH 5 0
BBX 1 7 2 -1
BITMAP
80
80
80
00
80
80
80
ENDCHAR
STARTCHAR 00A7
ENCODING 167
SWIDTH 600 0
DWIDTH 5 0
BBX 3 7 1 -1
BITMAP
60
80
C0
A0
A0
60
E0
ENDCHAR
STARTCHAR 00A8
ENCODING 168
SWIDTH 600 0
DWIDTH 5 0
BBX 3 1 1 5
BITMAP
A0
ENDCHAR
STARTCHAR 00A9
ENCODING 169
SWIDTH 600 0
DWIDTH 5 0
BBX 5 5 0 0
BITMAP
F0
E8
C8
B8
70
ENDCHAR
STARTCHAR 00AA
ENCODING 170
SWIDTH 600 0
DWIDTH 5 0
BBX 3 3 1 3
BITMAP
40
C0
E0
ENDCHAR
STARTCHAR 00AB
ENCODING 171
SWIDTH 600 0
DWIDTH 5 0
BBX 3 4 1 0
BITMAP
A0
E0
A0
A0
ENDCHAR
STARTCHAR 00AC
ENCODING 172
SWIDTH 600 0
DWIDTH 5 0
BBX 4 2 0 1
BITMAP
F0
10
ENDCHAR
STARTCHAR 00AD
ENCODING 173
SWIDTH 600 0
DWIDTH 5 0
BBX 3 1 1 2
BITMAP
E0
ENDCHAR
STARTCHAR 00AE
ENCODING 174
SWIDTH 600 0
DWIDTH 5 0
BBX 3 3 1 3
BITMAP
40
A0
E0
ENDCHAR
STARTCHAR 00AF
ENCODING 175
SWIDTH 600 0
DWIDTH 5 0
BBX 3 1 1 5
BITMAP
E0
ENDCHAR
STARTCHAR 00B0
ENCODING 176
SWIDTH 600 0
DWIDTH 5 0
BBX 3 3 1 3
BITMAP
40
A0
E0
ENDCHAR
STARTCHAR 00B1
ENCODING 177
SWIDTH 600 0
DWIDTH 5 0
BBX 4 5 0 0
BITMAP
20
F0
20
20
F0
ENDCHAR
STARTCHAR 00B2
ENCODING 178
SWIDTH 600 0
DWIDTH 5 0
BBX 3 3 1 3
BITMAP
40
C0
E0
ENDCHAR
STARTCHAR 00B3
ENCODING 179
SWIDTH 600 0
DWIDTH 5 0
BBX 3 3 1 3
BITMAP
40
C0
E0
ENDCHAR
STARTCHAR 00B4
ENCODING 180
SWIDTH 600 0
DWIDTH 5 0
BBX 1 1 2 5
BITMAP
80
ENDCHAR
STARTCHAR 00B5
ENCODING 181
SWIDTH 600 0
DWIDTH 5 0
BBX 3 6 1 -2
BITMAP
A0
A0
A0
E0
80
80
ENDCHAR
STARTCHAR 00B6
ENCODING 182
SWIDTH 600 0
DWIDTH 5 0
BBX 4 7 0 -1
BITMAP
30
F0
F0
70
30
30
30
ENDCHAR
STARTCHAR 00B7
ENCODING 183
SWIDTH 600 0
DWIDTH 5 0
BBX 1 1 2 2
BITMAP
80
ENDCHAR
STARTCHAR 00B8
ENCODING 184
SWIDTH 600 0
DWIDTH 5 0
BBX 1 2 2 -2
BITMAP
80
80
ENDCHAR
STARTCHAR 00B9
ENCODING 185
SWIDTH 600 0
DWIDTH 5 0
BBX 3 3 1 3
BITMAP
40
C0
E0
ENDCHAR
STARTCHAR 00BA
ENCODING 186
SWIDTH 600 0
DWIDTH 5 0
BBX 3 3 1 3
BITMAP
40
A0
E0
ENDCHAR
STARTCHAR 00BB
ENCODING 187
SWIDTH 600 0
DWIDTH 5 0
BBX 4 4 0 0
BITMAP
A0
50
50
A0
ENDCHAR
STARTCHAR 00BC
ENCODING 188
SWIDTH 600 0
DWIDTH 5 0
BBX 5 6 0 0
BITMAP
48
D0
50
90
70
98
ENDCHAR
STARTCHAR 00BD
ENCODING 189
SWIDTH 600 0
DWIDTH 5 0
BBX 5 6 0 0
BITMAP
48
D0
50
90
58
B8
ENDCHAR
STARTCHAR 00BE
ENCODING 190
SWIDTH 600 0
DWIDTH 5 0
BBX 5 6 0 0
BITMAP
48
D0
D0
10
70
98
ENDCHAR
STARTCHAR 00BF
ENCODING 191
SWIDTH 600 0
DWIDTH 5 0
BBX 3 6 1 -2
BITMAP
40
00
40
80
A0
40
ENDCHAR
STARTCHAR 00C0
ENCODING 192
SWIDTH 600 0
DWIDTH 5 0
BBX 5 8 0 0
BITMAP
40
20
20
60
50
50
70
98
ENDCHAR
STARTCHAR 00C1
ENCODING 193
SWIDTH 600 0
DWIDTH 5 0
BBX 5 8 0 0
BITMAP
20
20
20
60
50
50
70
98
ENDCHAR
STARTCHAR 00C2
ENCODING 194
SWIDTH 600 0
DWIDTH 5 0
BBX 5 8 0 0
BITMAP
20
50
20
60
50
50
70
98
ENDCHAR
STARTCHAR 00C3
ENCODING 195
SWIDTH 600 0
DWIDTH 5 0
BBX 5 7 0 0
BITMAP
70
20
60
50
50
70
98
ENDCHAR
STARTCHAR 00C4
ENCODING 196
SWIDTH 600 0
DWIDTH 5 0
BBX 5 7 0 0
BITMAP
50
20
60
50
50
70
98
ENDCHAR
STARTCHAR 00C5
ENCODING 197
SWIDTH 600 0
DWIDTH 5 0
BBX 5 8 0 0
BITMAP
20
60
20
60
50
50
70
98
ENDCHAR
STARTCHAR 00C6
ENCODING 198
SWIDTH 600 0
DWIDTH 5 0
BBX 5 6 0 0
BITMAP
38
60
60
70
E0
B8
ENDCHAR
STARTCHAR 00C7
ENCODING 199
SWIDTH 600 0
DWIDTH 5 0
BBX 4 8 0 -2
BITMAP
20
50
80
80
50
70
20
30
ENDCHAR
STARTCHAR 00C8
ENCODING 200
SWIDTH 600 0
DWIDTH 5 0
BBX 3 8 1 0
BITMAP
80
40
E0
80
80
E0
80
E0
ENDCHAR
STARTCHAR 00C9
ENCODING 201
SWIDTH 600 0
DWIDTH 5 0
BBX 3 8 1 0
BITMAP
40
40
E0
80
80
E0
80
E0
ENDCHAR
STARTCHAR 00CA
ENCODING 202
SWIDTH 600 0
DWIDTH 5 0
BBX 3 8 1 0
BITMAP
40
A0
E0
80
80
E0
80
E0
ENDCHAR
STARTCHAR 00CB
ENCODING 203
SWIDTH 600 0
DWIDTH 5 0
BBX 3 7 1 0
BITMAP
A0
E0
80
80
E0
80
E0
ENDCHAR
STARTCHAR 00CC
ENCODING 204
SWIDTH 600 0
DWIDTH 5 0
BBX 3 8 1 0
BITMAP
80
40
E0
40
40
40
40
E0
ENDCHAR
STARTCHAR 00CD
ENCODING 205
SWIDTH 600 0
DWIDTH 5 0
BBX 3 8 1 0
BITMAP
40
40
E0
40
40
40
40
E0
ENDCHAR
STARTCHAR 00CE
ENCODING 206
SWIDTH 600 0
DWIDTH 5 0
BBX 3 8 1 0
BITMAP
40
A0
E0
40
40
40
40
E0
ENDCHAR
STARTCHAR 00CF
ENCODING 207
SWIDTH 600 0
DWIDTH 5 0
BBX 3 7 1 0
BITMAP
A0
E0
40
40
40
40
E0
ENDCHAR
STARTCHAR 00D0
ENCODING 208
SWIDTH 600 0
DWIDTH 5 0
BBX 4 6 0 0
BITMAP
60
50
50
F0
50
70
ENDCHAR
STARTCHAR 00D1
ENCODING 209
SWIDTH 600 0
DWIDTH 5 0
BBX 3 7 1 0
BITMAP
E0
A0
A0
E0
E0
A0
A0
ENDCHAR
STARTCHAR 00D2
ENCODING 210
SWIDTH 600 0
DWIDTH 5 0
BBX 4 8 0 0
BITMAP
40
20
20
50
90
90
90
70
ENDCHAR
STARTCHAR 00D3
ENCODING 211
SWIDTH 600 0
DWIDTH 5 0
BBX 4 8 0 0
BITMAP
20
20
20
50
90
90
90
70
ENDCHAR
STARTCHAR 00D4
ENCODING 212
SWIDTH 600 0
DWIDTH 5 0
BBX 4 8 0 0
BITMAP
20
50
20
50
90
90
90
70
ENDCHAR
STARTCHAR 00D5
ENCODING 213
SWIDTH 600 0
DWIDTH 5 0
BBX 4 7 0 0
BITMAP
70
20
50
90
90
90
70
ENDCHAR
STARTCHAR 00D6
ENCODING 214
SWIDTH 600 0
DWIDTH 5 0
BBX 4 7 0 0
BITMAP
50
20
50
90
90
90
70
ENDCHAR
STARTCHAR 00D7
ENCODING 215
SWIDTH 600 0
DWIDTH 5 0
BBX 3 3 1 1
BITMAP
A0
40
A0
ENDCHAR
STARTCHAR 00D8
ENCODING 216
SWIDTH 600 0
DWIDTH 5 0
BBX 5 6 0 0
BITMAP
38
50
B0
B0
D0
F0
ENDCHAR
STARTCHAR 00D9
ENCODING 217
SWIDTH 600 0
DWIDTH 5 0
BBX 3 8 1 0
BITMAP
80
40
A0
A0
A0
A0
A0
E0
ENDCHAR
STARTCHAR 00DA
ENCODING 218
SWIDTH 600 0
DWIDTH 5 0
BBX 3 8 1 0
BITMAP
40
40
A0
A0
A0
A0
A0
E0
ENDCHAR
STARTCHAR 00DB
ENCODING 219
SWIDTH 600 0
DWIDTH 5 0
BBX 3 8 1 0
BITMAP
40
A0
A0
A0
A0
A0
A0
E0
ENDCHAR
STARTCHAR 00DC
ENCODING 220
SWIDTH 600 0
DWIDTH 5 0
BBX 3 7 1 0
BITMAP
A0
A0
A0
A0
A0
A0
E0
ENDCHAR
STARTCHAR 00DD
ENCODING 221
SWIDTH 600 0
DWIDTH 5 0
BBX 5 8 0 0
BITMAP
20
20
88
50
50
20
20
20
ENDCHAR
STARTCHAR 00DE
ENCODING 222
SWIDTH 600 0
DWIDTH 5 0
BBX 3 6 1 0
BITMAP
80
C0
A0
A0
E0
80
ENDCHAR
STARTCHAR 00DF
ENCODING 223
SWIDTH 600 0
DWIDTH 5 0
BBX 4 8 1 -2
BITMAP
C0
80
E0
A0
E0
90
20
40
ENDCHAR
STARTCHAR 00E0
ENCODING 224
SWIDTH 600 0
DWIDTH 5 0
BBX 4 6 0 0
BITMAP
40
20
70
10
F0
70
ENDCHAR
STARTCHAR 00E1
ENCODING 225
SWIDTH 600 0
DWIDTH 5 0
BBX 4 6 0 0
BITMAP
20
00
70
10
F0
70
ENDCHAR
STARTCHAR 00E2
ENCODING 226
SWIDTH 600 0
DWIDTH 5 0
BBX 4 6 0 0
BITMAP
60
10
70
10
F0
70
ENDCHAR
STARTCHAR 00E3
ENCODING 227
SWIDTH 600 0
DWIDTH 5 0
BBX 4 6 0 0
BITMAP
70
00
70
10
F0
70
ENDCHAR
STARTCHAR 00E4
ENCODING 228
SWIDTH 600 0
DWIDTH 5 0
BBX 4 6 0 0
BITMAP
50
00
70
10
F0
70
ENDCHAR
STARTCHAR 00E5
ENCODING 229
SWIDTH 600 0
DWIDTH 5 0
BBX 4 7 0 0
BITMAP
20
60
00
70
10
F0
70
ENDCHAR
STARTCHAR 00E6
ENCODING 230
SWIDTH 600 0
DWIDTH 5 0
BBX 5 4 0 0
BITMAP
F0
28
F0
F8
ENDCHAR
STARTCHAR 00E7
ENCODING 231
SWIDTH 600 0
DWIDTH 5 0
BBX 3 6 1 -2
BITMAP
E0
80
80
E0
40
40
ENDCHAR
STARTCHAR 00E8
ENCODING 232
SWIDTH 600 0
DWIDTH 5 0
BBX 4 6 0 0
BITMAP
60
00
70
90
E0
70
ENDCHAR
STARTCHAR 00E9
ENCODING 233
SWIDTH 600 0
DWIDTH 5 0
BBX 4 6 0 0
BITMAP
20
00
70
90
E0
70
ENDCHAR
STARTCHAR 00EA
ENCODING 234
SWIDTH 600 0
DWIDTH 5 0
BBX 4 6 0 0
BITMAP
60
10
70
90
E0
70
ENDCHAR
STARTCHAR 00EB
ENCODING 235
SWIDTH 600 0
DWIDTH 5 0
BBX 4 6 0 0
BITMAP
50
00
70
90
E0
70
ENDCHAR
STARTCHAR 00EC
ENCODING 236
SWIDTH 600 0
DWIDTH 5 0
BBX 3 6 1 0
BITMAP
40
00
C0
40
40
E0
ENDCHAR
STARTCHAR 00ED
ENCODING 237
SWIDTH 600 0
DWIDTH 5 0
BBX 3 6 1 0
BITMAP
60
00
C0
40
40
E0
ENDCHAR
STARTCHAR 00EE
ENCODING 238
SWIDTH 600 0
DWIDTH 5 0
BBX 3 6 1 0
BITMAP
60
80
C0
40
40
E0
ENDCHAR
STARTCHAR 00EF
ENCODING 239
SWIDTH 600 0
DWIDTH 5 0
BBX 3 6 1 0
BITMAP
A0
00
C0
40
40
E0
ENDCHAR
STARTCHAR 00F0
ENCODING 240
SWIDTH 600 0
DWIDTH 5 0
BBX 4 6 0 0
BITMAP
70
50
70
90
90
70
ENDCHAR
STARTCHAR 00F1
ENCODING 241
SWIDTH 600 0
DWIDTH 5 0
BBX 3 6 1 0
BITMAP
E0
00
E0
A0
A0
A0
ENDCHAR
STARTCHAR 00F2
ENCODING 242
SWIDTH 600 0
DWIDTH 5 0
BBX 4 6 0 0
BITMAP
60
00
70
90
90
70
ENDCHAR
STARTCHAR 00F3
ENCODING 243
SWIDTH 600 0
DWIDTH 5 0
BBX 4 6 0 0
BITMAP
20
00
70
90
90
70
ENDCHAR
STARTCHAR 00F4
ENCODING 244
SWIDTH 600 0
DWIDTH 5 0
BBX 4 6 0 0
BITMAP
60
10
70
90
90
70
ENDCHAR
STARTCHAR 00F5
ENCODING 245
SWIDTH 600 0
DWIDTH 5 0
BBX 4 6 0 0
BITMAP
70
00
70
90
90
70
ENDCHAR
STARTCHAR 00F6
ENCODING 246
SWIDTH 600 0
DWIDTH 5 0
BBX 4 6 0 0
BITMAP
50
00
70
90
90
70
ENDCHAR
STARTCHAR 00F7
ENCODING 247
SWIDTH 600 0
DWIDTH 5 0
BBX 4 5 0 0
BITMAP
20
20
F0
00
20
ENDCHAR
STARTCHAR 00F8
ENCODING 248
SWIDTH 600 0
DWIDTH 5 0
BBX 5 5 0 0
BITMAP
10
78
B0
D0
F0
ENDCHAR
STARTCHAR 00F9
ENCODING 249
SWIDTH 600 0
DWIDTH 5 0
BBX 3 6 1 0
BITMAP
C0
00
A0
A0
A0
E0
ENDCHAR
STARTCHAR 00FA
ENCODING 250
SWIDTH 600 0
DWIDTH 5 0
BBX 3 6 1 0
BITMAP
40
00
A0
A0
A0
E0
ENDCHAR
STARTCHAR 00FB
ENCODING 251
SWIDTH 600 0
DWIDTH 5 0
BBX 3 6 1 0
BITMAP
C0
20
A0
A0
A0
E0
ENDCHAR
STARTCHAR 00FC
ENCODING 252
SWIDTH 600 0
DWIDTH 5 0
BBX 3 6 1 0
BITMAP
A0
00
A0
A0
A0
E0
ENDCHAR
STARTCHAR 00FD
ENCODING 253
SWIDTH 600 0
DWIDTH 5 0
BBX 4 8 0 -2
BITMAP
20
00
90
50
60
20
20
40
ENDCHAR
STARTCHAR 00FE
ENCODING 254
SWIDTH 600 0
DWIDTH 5 0
BBX 3 8 1 -2
BITMAP
80
80
E0
A0
A0
E0
80
80
ENDCHAR
STARTCHAR 00FF
ENCODING 255
SWIDTH 600 0
DWIDTH 5 0
BBX 4 8 0 -2
BITMAP
50
00
90
50
60
20
20
40
ENDCHAR
STARTCHAR 0100
ENCODING 256
SWIDTH 600 0
DWIDTH 5 0
BBX 5 7 0 0
BITMAP
70
20
60
50
50
70
98
ENDCHAR
STARTCHAR 0101
ENCODING 257
SWIDTH 600 0
DWIDTH 5 0
BBX 4 6 0 0
BITMAP
60
00
70
10
F0
70
ENDCHAR
STARTCHAR 0102
ENCODING 258
SWIDTH 600 0
DWIDTH 5 0
BBX 5 8 0 0
BITMAP
60
70
20
60
50
50
70
98
ENDCHAR
STARTCHAR 0103
ENCODING 259
SWIDTH 600 0
DWIDTH 5 0
BBX 4 6 0 0
BITMAP
50
20
70
10
F0
70
ENDCHAR
STARTCHAR 0104
ENCODING 260
SWIDTH 600 0
DWIDTH 5 0
BBX 5 8 0 -2
BITMAP
20
60
50
50
70
90
18
18
ENDCHAR
STARTCHAR 0105
ENCODING 261
SWIDTH 600 0
DWIDTH 5 0
BBX 5 6 0 -2
BITMAP
70
10
F0
70
10
18
ENDCHAR
STARTCHAR 0106
ENCODING 262
SWIDTH 600 0
DWIDTH 5 0
BBX 4 8 0 0
BITMAP
20
30
20
50
80
80
50
70
ENDCHAR
STARTCHAR 0107
ENCODING 263
SWIDTH 600 0
DWIDTH 5 0
BBX 3 6 1 0
BITMAP
60
00
E0
80
80
E0
ENDCHAR
STARTCHAR 0108
ENCODING 264
SWIDTH 600 0
DWIDTH 5 0
BBX 4 8 0 0
BITMAP
20
50
20
50
80
80
50
70
ENDCHAR
STARTCHAR 0109
ENCODING 265
SWIDTH 600 0
DWIDTH 5 0
BBX 3 6 1 0
BITMAP
C0
20
E0
80
80
E0
ENDCHAR
STARTCHAR 010A
ENCODING 266
SWIDTH 600 0
DWIDTH 5 0
BBX 4 7 0 0
BITMAP
20
20
50
80
80
50
70
ENDCHAR
STARTCHAR 010B
ENCODING 267
SWIDTH 600 0
DWIDTH 5 0
BBX 3 6 1 0
BITMAP
40
00
E0
80
80
E0
ENDCHAR
STARTCHAR 010C
ENCODING 268
SWIDTH 600 0
DWIDTH 5 0
BBX 4 8 0 0
BITMAP
50
20
20
50
80
80
50
70
ENDCHAR
STARTCHAR 010D
ENCODING 269
SWIDTH 600 0
DWIDTH 5 0
BBX 3 6 1 0
BITMAP
A0
40
E0
80
80
E0
ENDCHAR
STARTCHAR 010E
ENCODING 270
SWIDTH 600 0
DWIDTH 5 0
BBX 3 8 1 0
BITMAP
C0
E0
C0
A0
A0
A0
A0
E0
ENDCHAR
STARTCHAR 010F
ENCODING 271
SWIDTH 600 0
DWIDTH 5 0
BBX 5 6 0 0
BITMAP
18
18
70
90
90
70
ENDCHAR
STARTCHAR 0110
ENCODING 272
SWIDTH 600 0
DWIDTH 5 0
BBX 4 6 0 0
BITMAP
60
50
50
F0
50
70
ENDCHAR
STARTCHAR 0111
ENCODING 273
SWIDTH 600 0
DWIDTH 5 0
BBX 5 6 0 0
BITMAP
10
38
70
90
90
70
ENDCHAR
STARTCHAR 0112
ENCODING 274
SWIDTH 600 0
DWIDTH 5 0
BBX 3 7 1 0
BITMAP
E0
E0
80
80
E0
80
E0
ENDCHAR
STARTCHAR 0113
ENCODING 275
SWIDTH 600 0
DWIDTH 5 0
BBX 4 6 0 0
BITMAP
70
00
70
90
E0
70
ENDCHAR
STARTCHAR 0114
ENCODING 276
SWIDTH 600 0
DWIDTH 5 0
BBX 3 8 1 0
BITMAP
C0
E0
E0
80
80
E0
80
E0
ENDCHAR
STARTCHAR 0115
ENCODING 277
SWIDTH 600 0
DWIDTH 5 0
BBX 4 6 0 0
BITMAP
50
20
70
90
E0
70
ENDCHAR
STARTCHAR 0116
ENCODING 278
SWIDTH 600 0
DWIDTH 5 0
BBX 3 7 1 0
BITMAP
40
E0
80
80
E0
80
E0
ENDCHAR
STARTCHAR 0117
ENCODING 279
SWIDTH 600 0
DWIDTH 5 0
BBX 4 6 0 0
BITMAP
20
00
70
90
E0
70
ENDCHAR
STARTCHAR 0118
ENCODING 280
SWIDTH 600 0
DWIDTH 5 0
BBX 3 8 1 -2
BITMAP
E0
80
80
E0
80
E0
40
20
ENDCHAR
STARTCHAR 0119
ENCODING 281
SWIDTH 600 0
DWIDTH 5 0
BBX 4 6 0 -2
BITMAP
70
90
E0
70
20
30
ENDCHAR
STARTCHAR 011A
ENCODING 282
SWIDTH 600 0
DWIDTH 5 0
BBX 3 8 1 0
BITMAP
A0
40
E0
80
80
E0
80
E0
ENDCHAR
STARTCHAR 011B
ENCODING 283
SWIDTH 600 0
DWIDTH 5 0
BBX 4 6 0 0
BITMAP
70
00
70
90
E0
70
ENDCHAR
STARTCHAR 011C
ENCODING 284
SWIDTH 600 0
DWIDTH 5 0
BBX 4 8 0 0
BITMAP
20
50
20
50
80
B0
90
70
ENDCHAR
STARTCHAR 011D
ENCODING 285
SWIDTH 600 0
DWIDTH 5 0
BBX 5 8 0 -2
BITMAP
60
10
78
50
60
70
88
70
ENDCHAR
STARTCHAR 011E
ENCODING 286
SWIDTH 600 0
DWIDTH 5 0
BBX 4 8 0 0
BITMAP
60
70
20
50
80
B0
90
70
ENDCHAR
STARTCHAR 011F
ENCODING 287
SWIDTH 600 0
DWIDTH 5 0
BBX 5 8 0 -2
BITMAP
50
20
78
50
60
70
88
70
ENDCHAR
STARTCHAR 0120
ENCODING 288
SWIDTH 600 0
DWIDTH 5 0
BBX 4 7 0 0
BITMAP
20
20
50
80
B0
90
70
ENDCHAR
STARTCHAR 0121
ENCODING 289
SWIDTH 600 0
DWIDTH 5 0
BBX 5 8 0 -2
BITMAP
20
10
70
50
60
70
88
70
ENDCHAR
STARTCHAR 0122
ENCODING 290
SWIDTH 600 0
DWIDTH 5 0
BBX 4 8 0 -2
BITMAP
20
50
80
B0
90
70
20
20
ENDCHAR
STARTCHAR 0123
ENCODING 291
SWIDTH 600 0
DWIDTH 5 0
BBX 5 8 0 -2
BITMAP
20
10
70
50
60
70
88
70
ENDCHAR
STARTCHAR 0124
ENCODING 292
SWIDTH 600 0
DWIDTH 5 0
BBX 3 8 1 0
BITMAP
40
A0
A0
A0
A0
E0
A0
A0
ENDCHAR
STARTCHAR 0125
ENCODING 293
SWIDTH 600 0
DWIDTH 5 0
BBX 4 8 0 0
BITMAP
40
C0
60
40
70
50
50
50
ENDCHAR
STARTCHAR 0126
ENCODING 294
SWIDTH 600 0
DWIDTH 5 0
BBX 5 6 0 0
BITMAP
90
F8
90
70
90
90
ENDCHAR
STARTCHAR 0127
ENCODING 295
SWIDTH 600 0
DWIDTH 5 0
BBX 4 6 0 0
BITMAP
40
E0
70
50
50
50
ENDCHAR
STARTCHAR 0128
ENCODING 296
SWIDTH 600 0
DWIDTH 5 0
BBX 3 7 1 0
BITMAP
E0
E0
40
40
40
40
E0
ENDCHAR
STARTCHAR 0129
ENCODING 297
SWIDTH 600 0
DWIDTH 5 0
BBX 3 6 1 0
BITMAP
E0
00
C0
40
40
E0
ENDCHAR
STARTCHAR 012A
ENCODING 298
SWIDTH 600 0
DWIDTH 5 0
BBX 3 7 1 0
BITMAP
E0
E0
40
40
40
40
E0
ENDCHAR
STARTCHAR 012B
ENCODING 299
SWIDTH 600 0
DWIDTH 5 0
BBX 3 6 1 0
BITMAP
E0
00
C0
40
40
E0
ENDCHAR
STARTCHAR 012C
ENCODING 300
SWIDTH 600 0
DWIDTH 5 0
BBX 3 8 1 0
BITMAP
C0
E0
E0
40
40
40
40
E0
ENDCHAR
STARTCHAR 012D
ENCODING 301
SWIDTH 600 0
DWIDTH 5 0
BBX 3 6 1 0
BITMAP
A0
40
C0
40
40
E0
ENDCHAR
STARTCHAR 012E
ENCODING 302
SWIDTH 600 0
DWIDTH 5 0
BBX 3 8 1 -2
BITMAP
E0
40
40
40
40
E0
40
20
ENDCHAR
STARTCHAR 012F
ENCODING 303
SWIDTH 600 0
DWIDTH 5 0
BBX 4 8 1 -2
BITMAP
40
00
C0
40
40
E0
20
30
ENDCHAR
STARTCHAR 0130
ENCODING 304
SWIDTH 600 0
DWIDTH 5 0
BBX 3 7 1 0
BITMAP
40
E0
40
40
40
40
E0
ENDCHAR
STARTCHAR 0131
ENCODING 305
SWIDTH 600 0
DWIDTH 5 0
BBX 3 4 1 0
BITMAP
C0
40
40
E0
ENDCHAR
STARTCHAR 0132
ENCODING 306
SWIDTH 600 0
DWIDTH 5 0
BBX 3 6 1 0
BITMAP
A0
A0
A0
A0
20
E0
ENDCHAR
STARTCHAR 0133
ENCODING 307
SWIDTH 600 0
DWIDTH 5 0
BBX 3 8 1 -2
BITMAP
A0
00
A0
A0
A0
A0
20
60
ENDCHAR
STARTCHAR 0134
ENCODING 308
SWIDTH 600 0
DWIDTH 5 0
BBX 4 8 0 0
BITMAP
20
50
70
10
10
10
10
F0
ENDCHAR
STARTCHAR 0135
ENCODING 309
SWIDTH 600 0
DWIDTH 5 0
BBX 3 8 1 -2
BITMAP
60
00
C0
40
40
40
40
C0
ENDCHAR
STARTCHAR 0136
ENCODING 310
SWIDTH 600 0
DWIDTH 5 0
BBX 4 8 1 -2
BITMAP
90
A0
C0
C0
A0
A0
50
40
ENDCHAR
STARTCHAR 0137
ENCODING 311
SWIDTH 600 0
DWIDTH 5 0
BBX 4 8 1 -2
BITMAP
80
80
A0
C0
A0
A0
50
40
ENDCHAR
STARTCHAR 0138
ENCODING 312
SWIDTH 600 0
DWIDTH 5 0
BBX 4 4 1 0
BITMAP
A0
C0
A0
B0
ENDCHAR
STARTCHAR 0139
ENCODING 313
SWIDTH 600 0
DWIDTH 5 0
BBX 3 8 1 0
BITMAP
80
80
80
80
80
80
80
E0
ENDCHAR
STARTCHAR 013A
ENCODING 314
SWIDTH 600 0
DWIDTH 5 0
BBX 3 8 1 0
BITMAP
40
40
C0
40
40
40
40
E0
ENDCHAR
STARTCHAR 013B
ENCODING 315
SWIDTH 600 0
DWIDTH 5 0
BBX 3 8 1 -2
BITMAP
80
80
80
80
80
E0
40
40
ENDCHAR
STARTCHAR 013C
ENCODING 316
SWIDTH 600 0
DWIDTH 5 0
BBX 3 8 1 -2
BITMAP
C0
40
40
40
40
E0
40
40
ENDCHAR
STARTCHAR 013D
ENCODING 317
SWIDTH 600 0
DWIDTH 5 0
BBX 3 6 1 0
BITMAP
C0
C0
80
80
80
E0
ENDCHAR
STARTCHAR 013E
ENCODING 318
SWIDTH 600 0
DWIDTH 5 0
BBX 4 6 1 0
BITMAP
F0
60
40
40
40
E0
ENDCHAR
STARTCHAR 013F
ENCODING 319
SWIDTH 600 0
DWIDTH 5 0
BBX 3 6 1 0
BITMAP
80
80
80
A0
80
E0
ENDCHAR
STARTCHAR 0140
ENCODING 320
SWIDTH 600 0
DWIDTH 5 0
BBX 4 6 1 0
BITMAP
C0
40
40
50
40
E0
ENDCHAR
STARTCHAR 0141
ENCODING 321
SWIDTH 600 0
DWIDTH 5 0
BBX 4 6 0 0
BITMAP
40
40
60
C0
40
70
ENDCHAR
STARTCHAR 0142
ENCODING 322
SWIDTH 600 0
DWIDTH 5 0
BBX 3 6 1 0
BITMAP
C0
40
60
C0
40
E0
ENDCHAR
STARTCHAR 0143
ENCODING 323
SWIDTH 600 0
DWIDTH 5 0
BBX 3 8 1 0
BITMAP
40
40
A0
A0
E0
E0
A0
A0
ENDCHAR
STARTCHAR 0144
ENCODING 324
SWIDTH 600 0
DWIDTH 5 0
BBX 3 6 1 0
BITMAP
40
00
E0
A0
A0
A0
ENDCHAR
STARTCHAR 0145
ENCODING 325
SWIDTH 600 0
DWIDTH 5 0
BBX 3 8 1 -2
BITMAP
A0
A0
E0
E0
A0
A0
40
40
ENDCHAR
STARTCHAR 0146
ENCODING 326
SWIDTH 600 0
DWIDTH 5 0
BBX 3 6 1 -2
BITMAP
E0
A0
A0
A0
40
40
ENDCHAR
STARTCHAR 0147
ENCODING 327
SWIDTH 600 0
DWIDTH 5 0
BBX 3 8 1 0
BITMAP
A0
40
A0
A0
E0
E0
A0
A0
ENDCHAR
STARTCHAR 0148
ENCODING 328
SWIDTH 600 0
DWIDTH 5 0
BBX 3 6 1 0
BITMAP
E0
00
E0
A0
A0
A0
ENDCHAR
STARTCHAR 0149
ENCODING 329
SWIDTH 600 0
DWIDTH 5 0
BBX 4 6 0 0
BITMAP
80
80
70
50
50
50
ENDCHAR
STARTCHAR 014A
ENCODING 330
SWIDTH 600 0
DWIDTH 5 0
BBX 3 8 1 -2
BITMAP
A0
A0
E0
E0
A0
A0
20
E0
ENDCHAR
STARTCHAR 014B
ENCODING 331
SWIDTH 600 0
DWIDTH 5 0
BBX 3 6 1 -2
BITMAP
E0
A0
A0
A0
20
60
ENDCHAR
STARTCHAR 014C
ENCODING 332
SWIDTH 600 0
DWIDTH 5 0
BBX 4 7 0 0
BITMAP
70
20
50
90
90
90
70
ENDCHAR
STARTCHAR 014D
ENCODING 333
SWIDTH 600 0
DWIDTH 5 0
BBX 4 6 0 0
BITMAP
70
00
70
90
90
70
ENDCHAR
STARTCHAR 014E
ENCODING 334
SWIDTH 600 0
DWIDTH 5 0
BBX 4 8 0 0
BITMAP
60
70
20
50
90
90
90
70
ENDCHAR
STARTCHAR 014F
ENCODING 335
SWIDTH 600 0
DWIDTH 5 0
BBX 4 6 0 0
BITMAP
50
20
70
90
90
70
ENDCHAR
STARTCHAR 0150
ENCODING 336
SWIDTH 600 0
DWIDTH 5 0
BBX 4 8 0 0
BITMAP
50
70
20
50
90
90
90
70
ENDCHAR
STARTCHAR 0151
ENCODING 337
SWIDTH 600 0
DWIDTH 5 0
BBX 4 6 0 0
BITMAP
70
00
70
90
90
70
ENDCHAR
STARTCHAR 0152
ENCODING 338
SWIDTH 600 0
DWIDTH 5 0
BBX 5 6 0 0
BITMAP
38
E0
A0
B0
A0
78
ENDCHAR
STARTCHAR 0153
ENCODING 339
SWIDTH 600 0
DWIDTH 5 0
BBX 5 4 0 0
BITMAP
F0
A8
B0
F8
ENDCHAR
STARTCHAR 0154
ENCODING 340
SWIDTH 600 0
DWIDTH 5 0
BBX 3 8 1 0
BITMAP
40
40
C0
A0
A0
E0
A0
A0
ENDCHAR
STARTCHAR 0155
ENCODING 341
SWIDTH 600 0
DWIDTH 5 0
BBX 3 6 1 0
BITMAP
60
00
E0
40
40
E0
ENDCHAR
STARTCHAR 0156
ENCODING 342
SWIDTH 600 0
DWIDTH 5 0
BBX 3 8 1 -2
BITMAP
C0
A0
A0
E0
A0
A0
40
40
ENDCHAR
STARTCHAR 0157
ENCODING 343
SWIDTH 600 0
DWIDTH 5 0
BBX 3 6 1 -2
BITMAP
E0
40
40
E0
40
80
ENDCHAR
STARTCHAR 0158
ENCODING 344
SWIDTH 600 0
DWIDTH 5 0
BBX 3 8 1 0
BITMAP
A0
40
C0
A0
A0
E0
A0
A0
ENDCHAR
STARTCHAR 0159
ENCODING 345
SWIDTH 600 0
DWIDTH 5 0
BBX 3 6 1 0
BITMAP
E0
00
E0
40
40
E0
ENDCHAR
STARTCHAR 015A
ENCODING 346
SWIDTH 600 0
DWIDTH 5 0
BBX 4 8 0 0
BITMAP
20
20
70
50
40
30
10
F0
ENDCHAR
STARTCHAR 015B
ENCODING 347
SWIDTH 600 0
DWIDTH 5 0
BBX 4 6 0 0
BITMAP
20
00
70
40
30
F0
ENDCHAR
STARTCHAR 015C
ENCODING 348
SWIDTH 600 0
DWIDTH 5 0
BBX 4 8 0 0
BITMAP
20
50
70
50
40
30
10
F0
ENDCHAR
STARTCHAR 015D
ENCODING 349
SWIDTH 600 0
DWIDTH 5 0
BBX 4 6 0 0
BITMAP
60
10
70
40
30
F0
ENDCHAR
STARTCHAR 015E
ENCODING 350
SWIDTH 600 0
DWIDTH 5 0
BBX 4 8 0 -2
BITMAP
70
50
40
30
10
F0
20
20
ENDCHAR
STARTCHAR 015F
ENCODING 351
SWIDTH 600 0
DWIDTH 5 0
BBX 4 6 0 -2
BITMAP
70
40
30
F0
20
20
ENDCHAR
STARTCHAR 0160
ENCODING 352
SWIDTH 600 0
DWIDTH 5 0
BBX 4 8 0 0
BITMAP
50
20
70
50
40
30
10
F0
ENDCHAR
STARTCHAR 0161
ENCODING 353
SWIDTH 600 0
DWIDTH 5 0
BBX 4 6 0 0
BITMAP
70
00
70
40
30
F0
ENDCHAR
STARTCHAR 0162
ENCODING 354
SWIDTH 600 0
DWIDTH 5 0
BBX 5 8 0 -2
BITMAP
F8
20
20
20
20
20
20
20
ENDCHAR
STARTCHAR 0163
ENCODING 355
SWIDTH 600 0
DWIDTH 5 0
BBX 4 8 0 -2
BITMAP
40
40
F0
40
40
30
10
30
ENDCHAR
STARTCHAR 0164
ENCODING 356
SWIDTH 600 0
DWIDTH 5 0
BBX 5 8 0 0
BITMAP
50
20
F8
20
20
20
20
20
ENDCHAR
STARTCHAR 0165
ENCODING 357
SWIDTH 600 0
DWIDTH 5 0
BBX 4 6 0 0
BITMAP
50
40
F0
40
40
30
ENDCHAR
STARTCHAR 0166
ENCODING 358
SWIDTH 600 0
DWIDTH 5 0
BBX 5 6 0 0
BITMAP
F8
20
20
70
20
20
ENDCHAR
STARTCHAR 0167
ENCODING 359
SWIDTH 600 0
DWIDTH 5 0
BBX 4 6 0 0
BITMAP
40
40
F0
70
40
30
ENDCHAR
STARTCHAR 0168
ENCODING 360
SWIDTH 600 0
DWIDTH 5 0
BBX 3 7 1 0
BITMAP
E0
A0
A0
A0
A0
A0
E0
ENDCHAR
STARTCHAR 0169
ENCODING 361
SWIDTH 600 0
DWIDTH 5 0
BBX 3 6 1 0
BITMAP
E0
00
A0
A0
A0
E0
ENDCHAR
STARTCHAR 016A
ENCODING 362
SWIDTH 600 0
DWIDTH 5 0
BBX 3 7 1 0
BITMAP
E0
A0
A0
A0
A0
A0
E0
ENDCHAR
STARTCHAR 016B
ENCODING 363
SWIDTH 600 0
DWIDTH 5 0
BBX 3 6 1 0
BITMAP
E0
00
A0
A0
A0
E0
ENDCHAR
STARTCHAR 016C
ENCODING 364
SWIDTH 600 0
DWIDTH 5 0
BBX 3 8 1 0
BITMAP
C0
E0
A0
A0
A0
A0
A0
E0
ENDCHAR
STARTCHAR 016D
ENCODING 365
SWIDTH 600 0
DWIDTH 5 0
BBX 3 6 1 0
BITMAP
A0
40
A0
A0
A0
E0
ENDCHAR
STARTCHAR 016E
ENCODING 366
SWIDTH 600 0
DWIDTH 5 0
BBX 3 8 1 0
BITMAP
40
C0
A0
A0
A0
A0
A0
E0
ENDCHAR
STARTCHAR 016F
ENCODING 367
SWIDTH 600 0
DWIDTH 5 0
BBX 3 7 1 0
BITMAP
40
C0
00
A0
A0
A0
E0
ENDCHAR
STARTCHAR 0170
ENCODING 368
SWIDTH 600 0
DWIDTH 5 0
BBX 3 8 1 0
BITMAP
A0
E0
A0
A0
A0
A0
A0
E0
ENDCHAR
STARTCHAR 0171
ENCODING 369
SWIDTH 600 0
DWIDTH 5 0
BBX 3 6 1 0
BITMAP
E0
00
A0
A0
A0
E0
ENDCHAR
STARTCHAR 0172
ENCODING 370
SWIDTH 600 0
DWIDTH 5 0
BBX 3 8 1 -2
BITMAP
A0
A0
A0
A0
A0
E0
40
60
ENDCHAR
STARTCHAR 0173
ENCODING 371
SWIDTH 600 0
DWIDTH 5 0
BBX 3 6 1 -2
BITMAP
A0
A0
A0
E0
40
20
ENDCHAR
STARTCHAR 0174
ENCODING 372
SWIDTH 600 0
DWIDTH 5 0
BBX 5 8 0 0
BITMAP
20
50
88
88
B0
F0
F0
50
ENDCHAR
STARTCHAR 0175
ENCODING 373
SWIDTH 600 0
DWIDTH 5 0
BBX 5 6 0 0
BITMAP
60
10
A8
F0
F0
50
ENDCHAR
STARTCHAR 0176
ENCODING 374
SWIDTH 600 0
DWIDTH 5 0
BBX 5 8 0 0
BITMAP
20
50
88
50
50
20
20
20
ENDCHAR
STARTCHAR 0177
ENCODING 375
SWIDTH 600 0
DWIDTH 5 0
BBX 4 8 0 -2
BITMAP
60
10
90
50
60
20
20
40
ENDCHAR
STARTCHAR 0178
ENCODING 376
SWIDTH 600 0
DWIDTH 5 0
BBX 5 7 0 0
BITMAP
50
88
50
50
20
20
20
ENDCHAR
STARTCHAR 0179
ENCODING 377
SWIDTH 600 0
DWIDTH 5 0
BBX 4 8 0 0
BITMAP
20
20
F0
10
20
20
40
F0
ENDCHAR
STARTCHAR 017A
ENCODING 378
SWIDTH 600 0
DWIDTH 5 0
BBX 3 6 1 0
BITMAP
40
00
E0
40
80
E0
ENDCHAR
STARTCHAR 017B
ENCODING 379
SWIDTH 600 0
DWIDTH 5 0
BBX 4 7 0 0
BITMAP
20
F0
10
20
20
40
F0
ENDCHAR
STARTCHAR 017C
ENCODING 380
SWIDTH 600 0
DWIDTH 5 0
BBX 3 6 1 0
BITMAP
40
00
E0
40
80
E0
ENDCHAR
STARTCHAR 017D
ENCODING 381
SWIDTH 600 0
DWIDTH 5 0
BBX 4 8 0 0
BITMAP
50
20
F0
10
20
20
40
F0
ENDCHAR
STARTCHAR 017E
ENCODING 382
SWIDTH 600 0
DWIDTH 5 0
BBX 3 6 1 0
BITMAP
E0
00
E0
40
80
E0
ENDCHAR
STARTCHAR 017F
ENCODING 383
SWIDTH 600 0
DWIDTH 5 0
BBX 3 6 1 0
BITMAP
60
40
C0
40
40
E0
ENDCHAR
STARTCHAR 018F
ENCODING 399
SWIDTH 600 0
DWIDTH 5 0
BBX 4 6 0 0
BITMAP
60
90
10
F0
90
70
ENDCHAR
STARTCHAR 0192
ENCODING 402
SWIDTH 600 0
DWIDTH 5 0
BBX 5 8 0 -2
BITMAP
18
20
70
20
20
40
40
C0
ENDCHAR
STARTCHAR 01A0
ENCODING 416
SWIDTH 600 0
DWIDTH 5 0
BBX 5 6 0 0
BITMAP
38
50
90
90
90
70
ENDCHAR
STARTCHAR 01A1
ENCODING 417
SWIDTH 600 0
DWIDTH 5 0
BBX 4 5 0 0
BITMAP
10
70
90
90
70
ENDCHAR
STARTCHAR 01AF
ENCODING 431
SWIDTH 600 0
DWIDTH 5 0
BBX 4 6 1 0
BITMAP
B0
A0
A0
A0
A0
E0
ENDCHAR
STARTCHAR 01B0
ENCODING 432
SWIDTH 600 0
DWIDTH 5 0
BBX 4 5 1 0
BITMAP
10
A0
A0
A0
E0
ENDCHAR
STARTCHAR 01CD
ENCODING 461
SWIDTH 600 0
DWIDTH 5 0
BBX 5 8 0 0
BITMAP
50
20
20
60
50
50
70
98
ENDCHAR
STARTCHAR 01CE
ENCODING 462
SWIDTH 600 0
DWIDTH 5 0
BBX 4 6 0 0
BITMAP
70
00
70
10
F0
70
ENDCHAR
STARTCHAR 01CF
ENCODING 463
SWIDTH 600 0
DWIDTH 5 0
BBX 3 8 1 0
BITMAP
A0
40
E0
40
40
40
40
E0
ENDCHAR
STARTCHAR 01D0
ENCODING 464
SWIDTH 600 0
DWIDTH 5 0
BBX 3 6 1 0
BITMAP
A0
40
C0
40
40
E0
ENDCHAR
STARTCHAR 01D1
ENCODING 465
SWIDTH 600 0
DWIDTH 5 0
BBX 4 8 0 0
BITMAP
50
20
20
50
90
90
90
70
ENDCHAR
STARTCHAR 01D2
ENCODING 466
SWIDTH 600 0
DWIDTH 5 0
BBX 4 6 0 0
BITMAP
70
00
70
90
90
70
ENDCHAR
STARTCHAR 01D3
ENCODING 467
SWIDTH 600 0
DWIDTH 5 0
BBX 3 8 1 0
BITMAP
A0
40
A0
A0
A0
A0
A0
E0
ENDCHAR
STARTCHAR 01D4
ENCODING 468
SWIDTH 600 0
DWIDTH 5 0
BBX 3 6 1 0
BITMAP
E0
00
A0
A0
A0
E0
ENDCHAR
STARTCHAR 01D5
ENCODING 469
SWIDTH 600 0
DWIDTH 5 0
BBX 3 8 1 0
BITMAP
E0
A0
A0
A0
A0
A0
A0
E0
ENDCHAR
STARTCHAR 01D6
ENCODING 470
SWIDTH 600 0
DWIDTH 5 0
BBX 3 7 1 0
BITMAP
E0
A0
00
A0
A0
A0
E0
ENDCHAR
STARTCHAR 01D7
ENCODING 471
SWIDTH 600 0
DWIDTH 5 0
BBX 3 9 1 0
BITMAP
40
40
A0
A0
A0
A0
A0
A0
E0
ENDCHAR
STARTCHAR 01D8
ENCODING 472
SWIDTH 600 0
DWIDTH 5 0
BBX 3 7 1 0
BITMAP
40
A0
00
A0
A0
A0
E0
ENDCHAR
STARTCHAR 01D9
ENCODING 473
SWIDTH 600 0
DWIDTH 5 0
BBX 3 9 1 0
BITMAP
A0
40
A0
A0
A0
A0
A0
A0
E0
ENDCHAR
STARTCHAR 01DA
ENCODING 474
SWIDTH 600 0
DWIDTH 5 0
BBX 3 7 1 0
BITMAP
E0
A0
00
A0
A0
A0
E0
ENDCHAR
STARTCHAR 01DB
ENCODING 475
SWIDTH 600 0
DWIDTH 5 0
BBX 3 9 1 0
BITMAP
80
40
A0
A0
A0
A0
A0
A0
E0
ENDCHAR
STARTCHAR 01DC
ENCODING 476
SWIDTH 600 0
DWIDTH 5 0
BBX 3 7 1 0
BITMAP
C0
A0
00
A0
A0
A0
E0
ENDCHAR
STARTCHAR 01FA
ENCODING 506
SWIDTH 600 0
DWIDTH 5 0
BBX 5 9 0 0
BITMAP
20
20
60
20
60
50
50
70
98
ENDCHAR
STARTCHAR 01FB
ENCODING 507
SWIDTH 600 0
DWIDTH 5 0
BBX 4 8 0 0
BITMAP
20
40
60
60
50
10
F0
70
ENDCHAR
STARTCHAR 01FC
ENCODING 508
SWIDTH 600 0
DWIDTH 5 0
BBX 5 8 0 0
BITMAP
10
20
38
60
60
70
E0
B8
ENDCHAR
STARTCHAR 01FD
ENCODING 509
SWIDTH 600 0
DWIDTH 5 0
BBX 5 6 0 0
BITMAP
20
00
F0
28
F0
F8
ENDCHAR
STARTCHAR 01FE
ENCODING 510
SWIDTH 600 0
DWIDTH 5 0
BBX 5 8 0 0
BITMAP
20
20
38
50
B0
B0
D0
F0
ENDCHAR
STARTCHAR 01FF
ENCODING 511
SWIDTH 600 0
DWIDTH 5 0
BBX 5 6 0 0
BITMAP
20
10
78
B0
D0
F0
ENDCHAR
STARTCHAR 0218
ENCODING 536
SWIDTH 600 0
DWIDTH 5 0
BBX 4 8 0 -2
BITMAP
70
50
40
30
10
F0
20
40
ENDCHAR
STARTCHAR 0219
ENCODING 537
SWIDTH 600 0
DWIDTH 5 0
BBX 4 6 0 -2
BITMAP
70
40
30
F0
20
20
ENDCHAR
STARTCHAR 021A
ENCODING 538
SWIDTH 600 0
DWIDTH 5 0
BBX 5 8 0 -2
BITMAP
F8
20
20
20
20
20
20
20
ENDCHAR
STARTCHAR 021B
ENCODING 539
SWIDTH 600 0
DWIDTH 5 0
BBX 4 8 0 -2
BITMAP
40
40
F0
40
40
30
20
20
ENDCHAR
STARTCHAR 0237
ENCODING 567
SWIDTH 600 0
DWIDTH 5 0
BBX 2 6 1 -2
BITMAP
C0
40
40
40
40
C0
ENDCHAR
STARTCHAR 0259
ENCODING 601
SWIDTH 600 0
DWIDTH 5 0
BBX 4 4 0 0
BITMAP
70
10
F0
70
ENDCHAR
STARTCHAR 02BB
ENCODING 699
SWIDTH 600 0
DWIDTH 5 0
BBX 1 1 2 5
BITMAP
80
ENDCHAR
STARTCHAR 02BC
ENCODING 700
SWIDTH 600 0
DWIDTH 5 0
BBX 1 2 1 4
BITMAP
80
80
ENDCHAR
STARTCHAR 02C6
ENCODING 710
SWIDTH 600 0
DWIDTH 5 0
BBX 3 1 1 5
BITMAP
E0
ENDCHAR
STARTCHAR 02C7
ENCODING 711
SWIDTH 600 0
DWIDTH 5 0
BBX 3 1 1 5
BITMAP
E0
ENDCHAR
STARTCHAR 02D8
ENCODING 728
SWIDTH 600 0
DWIDTH 5 0
BBX 3 1 1 5
BITMAP
E0
ENDCHAR
STARTCHAR 02D9
ENCODING 729
SWIDTH 600 0
DWIDTH 5 0
BBX 1 1 2 5
BITMAP
80
ENDCHAR
STARTCHAR 02DA
ENCODING 730
SWIDTH 600 0
DWIDTH 5 0
BBX 2 2 1 5
BITMAP
40
C0
ENDCHAR
STARTCHAR 02DB
ENCODING 731
SWIDTH 600 0
DWIDTH 5 0
BBX 2 2 1 -2
BITMAP
80
C0
ENDCHAR
STARTCHAR 02DC
ENCODING 732
SWIDTH 600 0
DWIDTH 5 0
BBX 3 1 1 5
BITMAP
E0
ENDCHAR
STARTCHAR 02DD
ENCODING 733
SWIDTH 600 0
DWIDTH 5 0
BBX 3 1 1 5
BITMAP
E0
ENDCHAR
STARTCHAR 0300
ENCODING 768
SWIDTH 0 0
DWIDTH 0 0
BBX 1 1 -1 5
BITMAP
80
ENDCHAR
STARTCHAR 0301
ENCODING 769
SWIDTH 0 0
DWIDTH 0 0
BBX 1 1 0 5
BITMAP
80
ENDCHAR
STARTCHAR 0302
ENCODING 770
SWIDTH 0 0
DWIDTH 0 0
BBX 2 1 -1 5
BITMAP
C0
ENDCHAR
STARTCHAR 0303
ENCODING 771
SWIDTH 0 0
DWIDTH 0 0
BBX 2 1 -1 5
BITMAP
C0
ENDCHAR
STARTCHAR 0304
ENCODING 772
SWIDTH 0 0
DWIDTH 0 0
BBX 2 1 -1 5
BITMAP
C0
ENDCHAR
STARTCHAR 0306
ENCODING 774
SWIDTH 0 0
DWIDTH 0 0
BBX 2 1 -1 5
BITMAP
C0
ENDCHAR
STARTCHAR 0307
ENCODING 775
SWIDTH 0 0
DWIDTH 0 0
BBX 2 1 -1 5
BITMAP
C0
ENDCHAR
STARTCHAR 0308
ENCODING 776
SWIDTH 0 0
DWIDTH 0 0
BBX 2 1 -1 5
BITMAP
C0
ENDCHAR
STARTCHAR 0309
ENCODING 777
SWIDTH 0 0
DWIDTH 0 0
BBX 2 1 -1 5
BITMAP
C0
ENDCHAR
STARTCHAR 030A
ENCODING 778
SWIDTH 0 0
DWIDTH 0 0
BBX 2 2 -1 5
BITMAP
80
C0
ENDCHAR
STARTCHAR 030B
ENCODING 779
SWIDTH 0 0
DWIDTH 0 0
BBX 3 1 -1 5
BITMAP
E0
ENDCHAR
STARTCHAR 030C
ENCODING 780
SWIDTH 0 0
DWIDTH 0 0
BBX 2 1 -1 5
BITMAP
C0
ENDCHAR
STARTCHAR 0312
ENCODING 786
SWIDTH 0 0
DWIDTH 0 0
BBX 2 1 -1 5
BITMAP
C0
ENDCHAR
STARTCHAR 0315
ENCODING 789
SWIDTH 0 0
DWIDTH 0 0
BBX 1 2 0 4
BITMAP
80
80
ENDCHAR
STARTCHAR 031B
ENCODING 795
SWIDTH 0 0
DWIDTH 0 0
BBX 2 1 -1 4
BITMAP
C0
ENDCHAR
STARTCHAR 0323
ENCODING 803
SWIDTH 0 0
DWIDTH 0 0
BBX 2 1 -1 -1
BITMAP
C0
ENDCHAR
STARTCHAR 0326
ENCODING 806
SWIDTH 0 0
DWIDTH 0 0
BBX 2 2 -1 -2
BITMAP
C0
80
ENDCHAR
STARTCHAR 0327
ENCODING 807
SWIDTH 0 0
DWIDTH 0 0
BBX 2 2 -1 -2
BITMAP
40
C0
ENDCHAR
STARTCHAR 0328
ENCODING 808
SWIDTH 0 0
DWIDTH 0 0
BBX 2 2 -2 -2
BITMAP
C0
40
ENDCHAR
STARTCHAR 03C0
ENCODING 960
SWIDTH 600 0
DWIDTH 5 0
BBX 5 4 0 0
BITMAP
F8
50
50
58
ENDCHAR
STARTCHAR 0400
ENCODING 1024
SWIDTH 600 0
DWIDTH 5 0
BBX 3 8 1 0
BITMAP
80
40
E0
80
80
E0
80
E0
ENDCHAR
STARTCHAR 0401
ENCODING 1025
SWIDTH 600 0
DWIDTH 5 0
BBX 3 7 1 0
BITMAP
A0
E0
80
80
E0
80
E0
ENDCHAR
STARTCHAR 0402
ENCODING 1026
SWIDTH 600 0
DWIDTH 5 0
BBX 5 7 0 -1
BITMAP
E0
40
60
50
48
48
38
ENDCHAR
STARTCHAR 0403
ENCODING 1027
SWIDTH 600 0
DWIDTH 5 0
BBX 3 8 1 0
BITMAP
40
60
E0
80
80
80
80
80
ENDCHAR
STARTCHAR 0404
ENCODING 1028
SWIDTH 600 0
DWIDTH 5 0
BBX 4 6 0 0
BITMAP
20
50
80
E0
50
70
ENDCHAR
STARTCHAR 0405
ENCODING 1029
SWIDTH 600 0
DWIDTH 5 0
BBX 4 6 0 0
BITMAP
70
50
40
30
10
F0
ENDCHAR
STARTCHAR 0406
ENCODING 1030
SWIDTH 600 0
DWIDTH 5 0
BBX 3 6 1 0
BITMAP
E0
40
40
40
40
E0
ENDCHAR
STARTCHAR 0407
ENCODING 1031
SWIDTH 600 0
DWIDTH 5 0
BBX 3 7 1 0
BITMAP
A0
E0
40
40
40
40
E0
ENDCHAR
STARTCHAR 0408
ENCODING 1032
SWIDTH 600 0
DWIDTH 5 0
BBX 4 6 0 0
BITMAP
70
10
10
10
10
F0
ENDCHAR
STARTCHAR 0409
ENCODING 1033
SWIDTH 600 0
DWIDTH 5 0
BBX 5 6 0 0
BITMAP
60
60
60
78
A8
B0
ENDCHAR
STARTCHAR 040A
ENCODING 1034
SWIDTH 600 0
DWIDTH 5 0
BBX 5 6 0 0
BITMAP
A0
A0
A0
F8
A8
B0
ENDCHAR
STARTCHAR 040B
ENCODING 1035
SWIDTH 600 0
DWIDTH 5 0
BBX 5 6 0 0
BITMAP
E0
40
60
50
48
48
ENDCHAR
STARTCHAR 040C
ENCODING 1036
SWIDTH 600 0
DWIDTH 5 0
BBX 4 8 1 0
BITMAP
40
40
A0
A0
C0
C0
A0
B0
ENDCHAR
STARTCHAR 040D
ENCODING 1037
SWIDTH 600 0
DWIDTH 5 0
BBX 3 8 1 0
BITMAP
80
40
A0
A0
E0
E0
A0
A0
ENDCHAR
STARTCHAR 040E
ENCODING 1038
SWIDTH 600 0
DWIDTH 5 0
BBX 5 8 0 0
BITMAP
60
70
88
50
50
60
20
60
ENDCHAR
STARTCHAR 040F
ENCODING 1039
SWIDTH 600 0
DWIDTH 5 0
BBX 3 7 1 -1
BITMAP
A0
A0
A0
A0
A0
E0
40
ENDCHAR
STARTCHAR 0410
ENCODING 1040
SWIDTH 600 0
DWIDTH 5 0
BBX 5 6 0 0
BITMAP
20
60
50
50
70
98
ENDCHAR
STARTCHAR 0411
ENCODING 1041
SWIDTH 600 0
DWIDTH 5 0
BBX 3 6 1 0
BITMAP
E0
80
80
E0
A0
E0
ENDCHAR
STARTCHAR 0412
ENCODING 1042
SWIDTH 600 0
DWIDTH 5 0
BBX 3 6 1 0
BITMAP
C0
A0
A0
E0
A0
E0
ENDCHAR
STARTCHAR 0413
ENCODING 1043
SWIDTH 600 0
DWIDTH 5 0
BBX 3 6 1 0
BITMAP
E0
80
80
80
80
80
ENDCHAR
STARTCHAR 0414
ENCODING 1044
SWIDTH 600 0
DWIDTH 5 0
BBX 5 7 0 -1
BITMAP
70
50
50
50
50
F8
88
ENDCHAR
STARTCHAR 0415
ENCODING 1045
SWIDTH 600 0
DWIDTH 5 0
BBX 3 6 1 0
BITMAP
E0
80
80
E0
80
E0
ENDCHAR
STARTCHAR 0416
ENCODING 1046
SWIDTH 600 0
DWIDTH 5 0
BBX 5 6 0 0
BITMAP
A8
B0
B0
70
B0
A8
ENDCHAR
STARTCHAR 0417
ENCODING 1047
SWIDTH 600 0
DWIDTH 5 0
BBX 4 6 0 0
BITMAP
60
90
10
30
10
F0
ENDCHAR
STARTCHAR 0418
ENCODING 1048
SWIDTH 600 0
DWIDTH 5 0
BBX 3 6 1 0
BITMAP
A0
A0
E0
E0
A0
A0
ENDCHAR
STARTCHAR 0419
ENCODING 1049
SWIDTH 600 0
DWIDTH 5 0
BBX 3 8 1 0
BITMAP
C0
E0
A0
A0
E0
E0
A0
A0
ENDCHAR
STARTCHAR 041A
ENCODING 1050
SWIDTH 600 0
DWIDTH 5 0
BBX 4 6 1 0
BITMAP
A0
A0
C0
C0
A0
B0
ENDCHAR
STARTCHAR 041B
ENCODING 1051
SWIDTH 600 0
DWIDTH 5 0
BBX 4 6 0 0
BITMAP
70
50
50
50
50
90
ENDCHAR
STARTCHAR 041C
ENCODING 1052
SWIDTH 600 0
DWIDTH 5 0
BBX 4 6 0 0
BITMAP
D0
D0
F0
B0
D0
90
ENDCHAR
STARTCHAR 041D
ENCODING 1053
SWIDTH 600 0
DWIDTH 5 0
BBX 3 6 1 0
BITMAP
A0
A0
A0
E0
A0
A0
ENDCHAR
STARTCHAR 041E
ENCODING 1054
SWIDTH 600 0
DWIDTH 5 0
BBX 4 6 0 0
BITMAP
20
50
90
90
90
70
ENDCHAR
STARTCHAR 041F
ENCODING 1055
SWIDTH 600 0
DWIDTH 5 0
BBX 3 6 1 0
BITMAP
E0
A0
A0
A0
A0
A0
ENDCHAR
STARTCHAR 0420
ENCODING 1056
SWIDTH 600 0
DWIDTH 5 0
BBX 3 6 1 0
BITMAP
C0
A0
A0
E0
80
80
ENDCHAR
STARTCHAR 0421
ENCODING 1057
SWIDTH 600 0
DWIDTH 5 0
BBX 4 6 0 0
BITMAP
20
50
80
80
50
70
ENDCHAR
STARTCHAR 0422
ENCODING 1058
SWIDTH 600 0
DWIDTH 5 0
BBX 5 6 0 0
BITMAP
F8
20
20
20
20
20
ENDCHAR
STARTCHAR 0423
ENCODING 1059
SWIDTH 600 0
DWIDTH 5 0
BBX 5 6 0 0
BITMAP
88
50
50
60
20
60
ENDCHAR
STARTCHAR 0424
ENCODING 1060
SWIDTH 600 0
DWIDTH 5 0
BBX 5 6 0 0
BITMAP
20
70
A8
A8
B0
60
ENDCHAR
STARTCHAR 0425
ENCODING 1061
SWIDTH 600 0
DWIDTH 5 0
BBX 5 6 0 0
BITMAP
88
50
60
20
50
98
ENDCHAR
STARTCHAR 0426
ENCODING 1062
SWIDTH 600 0
DWIDTH 5 0
BBX 4 7 1 -1
BITMAP
A0
A0
A0
A0
A0
F0
10
ENDCHAR
STARTCHAR 0427
ENCODING 1063
SWIDTH 600 0
DWIDTH 5 0
BBX 4 6 0 0
BITMAP
90
90
90
70
10
10
ENDCHAR
STARTCHAR 0428
ENCODING 1064
SWIDTH 600 0
DWIDTH 5 0
BBX 4 6 0 0
BITMAP
B0
B0
B0
B0
B0
F0
ENDCHAR
STARTCHAR 0429
ENCODING 1065
SWIDTH 600 0
DWIDTH 5 0
BBX 5 7 0 -1
BITMAP
B0
B0
B0
B0
B0
F8
08
ENDCHAR
STARTCHAR 042A
ENCODING 1066
SWIDTH 600 0
DWIDTH 5 0
BBX 5 6 0 0
BITMAP
C0
40
40
78
48
70
ENDCHAR
STARTCHAR 042B
ENCODING 1067
SWIDTH 600 0
DWIDTH 5 0
BBX 4 6 0 0
BITMAP
90
90
90
F0
B0
F0
ENDCHAR
STARTCHAR 042C
ENCODING 1068
SWIDTH 600 0
DWIDTH 5 0
BBX 3 6 1 0
BITMAP
80
80
80
E0
A0
E0
ENDCHAR
STARTCHAR 042D
ENCODING 1069
SWIDTH 600 0
DWIDTH 5 0
BBX 4 6 0 0
BITMAP
60
90
10
30
90
70
ENDCHAR
STARTCHAR 042E
ENCODING 1070
SWIDTH 600 0
DWIDTH 5 0
BBX 5 6 0 0
BITMAP
B0
B0
A8
E8
B0
B0
ENDCHAR
STARTCHAR 042F
ENCODING 1071
SWIDTH 600 0
DWIDTH 5 0
BBX 4 6 0 0
BITMAP
30
50
90
70
50
D0
ENDCHAR
STARTCHAR 0430
ENCODING 1072
SWIDTH 600 0
DWIDTH 5 0
BBX 4 4 0 0
BITMAP
70
10
F0
70
ENDCHAR
STARTCHAR 0431
ENCODING 1073
SWIDTH 600 0
DWIDTH 5 0
BBX 4 6 0 0
BITMAP
70
40
B0
D0
90
70
ENDCHAR
STARTCHAR 0432
ENCODING 1074
SWIDTH 600 0
DWIDTH 5 0
BBX 3 4 1 0
BITMAP
E0
A0
E0
E0
ENDCHAR
STARTCHAR 0433
ENCODING 1075
SWIDTH 600 0
DWIDTH 5 0
BBX 3 4 1 0
BITMAP
E0
80
80
80
ENDCHAR
STARTCHAR 0434
ENCODING 1076
SWIDTH 600 0
DWIDTH 5 0
BBX 5 5 0 -1
BITMAP
70
50
50
F8
88
ENDCHAR
STARTCHAR 0435
ENCODING 1077
SWIDTH 600 0
DWIDTH 5 0
BBX 4 4 0 0
BITMAP
70
90
E0
70
ENDCHAR
STARTCHAR 0436
ENCODING 1078
SWIDTH 600 0
DWIDTH 5 0
BBX 5 4 0 0
BITMAP
B8
B0
F0
B8
ENDCHAR
STARTCHAR 0437
ENCODING 1079
SWIDTH 600 0
DWIDTH 5 0
BBX 4 4 0 0
BITMAP
70
10
30
F0
ENDCHAR
STARTCHAR 0438
ENCODING 1080
SWIDTH 600 0
DWIDTH 5 0
BBX 3 4 1 0
BITMAP
A0
E0
A0
A0
ENDCHAR
STARTCHAR 0439
ENCODING 1081
SWIDTH 600 0
DWIDTH 5 0
BBX 3 6 1 0
BITMAP
A0
40
A0
E0
A0
A0
ENDCHAR
STARTCHAR 043A
ENCODING 1082
SWIDTH 600 0
DWIDTH 5 0
BBX 3 4 1 0
BITMAP
A0
C0
C0
A0
ENDCHAR
STARTCHAR 043B
ENCODING 1083
SWIDTH 600 0
DWIDTH 5 0
BBX 4 4 0 0
BITMAP
70
50
50
D0
ENDCHAR
STARTCHAR 043C
ENCODING 1084
SWIDTH 600 0
DWIDTH 5 0
BBX 4 4 0 0
BITMAP
D0
F0
B0
90
ENDCHAR
STARTCHAR 043D
ENCODING 1085
SWIDTH 600 0
DWIDTH 5 0
BBX 3 4 1 0
BITMAP
A0
A0
E0
A0
ENDCHAR
STARTCHAR 043E
ENCODING 1086
SWIDTH 600 0
DWIDTH 5 0
BBX 4 4 0 0
BITMAP
70
90
90
70
ENDCHAR
STARTCHAR 043F
ENCODING 1087
SWIDTH 600 0
DWIDTH 5 0
BBX 3 4 1 0
BITMAP
E0
A0
A0
A0
ENDCHAR
STARTCHAR 0440
ENCODING 1088
SWIDTH 600 0
DWIDTH 5 0
BBX 3 6 1 -2
BITMAP
E0
A0
A0
E0
80
80
ENDCHAR
STARTCHAR 0441
ENCODING 1089
SWIDTH 600 0
DWIDTH 5 0
BBX 3 4 1 0
BITMAP
E0
80
80
E0
ENDCHAR
STARTCHAR 0442
ENCODING 1090
SWIDTH 600 0
DWIDTH 5 0
BBX 3 4 1 0
BITMAP
E0
40
40
40
ENDCHAR
STARTCHAR 0443
ENCODING 1091
SWIDTH 600 0
DWIDTH 5 0
BBX 4 6 0 -2
BITMAP
90
50
60
20
20
40
ENDCHAR
STARTCHAR 0444
ENCODING 1092
SWIDTH 600 0
DWIDTH 5 0
BBX 5 8 0 -2
BITMAP
20
20
F0
A8
A8
F0
20
20
ENDCHAR
STARTCHAR 0445
ENCODING 1093
SWIDTH 600 0
DWIDTH 5 0
BBX 4 4 0 0
BITMAP
D0
20
60
D0
ENDCHAR
STARTCHAR 0446
ENCODING 1094
SWIDTH 600 0
DWIDTH 5 0
BBX 4 5 1 -1
BITMAP
A0
A0
A0
F0
10
ENDCHAR
STARTCHAR 0447
ENCODING 1095
SWIDTH 600 0
DWIDTH 5 0
BBX 3 4 1 0
BITMAP
A0
A0
E0
20
ENDCHAR
STARTCHAR 0448
ENCODING 1096
SWIDTH 600 0
DWIDTH 5 0
BBX 4 4 0 0
BITMAP
B0
B0
B0
F0
ENDCHAR
STARTCHAR 0449
ENCODING 1097
SWIDTH 600 0
DWIDTH 5 0
BBX 5 5 0 -1
BITMAP
B0
B0
B0
F8
08
ENDCHAR
STARTCHAR 044A
ENCODING 1098
SWIDTH 600 0
DWIDTH 5 0
BBX 5 4 0 0
BITMAP
C0
70
50
78
ENDCHAR
STARTCHAR 044B
ENCODING 1099
SWIDTH 600 0
DWIDTH 5 0
BBX 4 4 0 0
BITMAP
90
F0
B0
F0
ENDCHAR
STARTCHAR 044C
ENCODING 1100
SWIDTH 600 0
DWIDTH 5 0
BBX 3 4 1 0
BITMAP
80
E0
A0
E0
ENDCHAR
STARTCHAR 044D
ENCODING 1101
SWIDTH 600 0
DWIDTH 5 0
BBX 3 4 1 0
BITMAP
E0
20
60
E0
ENDCHAR
STARTCHAR 044E
ENCODING 1102
SWIDTH 600 0
DWIDTH 5 0
BBX 4 4 0 0
BITMAP
B0
B0
F0
B0
ENDCHAR
STARTCHAR 044F
ENCODING 1103
SWIDTH 600 0
DWIDTH 5 0
BBX 4 4 0 0
BITMAP
70
50
70
D0
ENDCHAR
STARTCHAR 0450
ENCODING 1104
SWIDTH 600 0
DWIDTH 5 0
BBX 4 6 0 0
BITMAP
60
00
70
90
E0
70
ENDCHAR
STARTCHAR 0451
ENCODING 1105
SWIDTH 600 0
DWIDTH 5 0
BBX 4 6 0 0
BITMAP
50
00
70
90
E0
70
ENDCHAR
STARTCHAR 0452
ENCODING 1106
SWIDTH 600 0
DWIDTH 5 0
BBX 4 8 0 -2
BITMAP
40
E0
70
50
50
50
10
30
ENDCHAR
STARTCHAR 0453
ENCODING 1107
SWIDTH 600 0
DWIDTH 5 0
BBX 3 6 1 0
BITMAP
60
00
E0
80
80
80
ENDCHAR
STARTCHAR 0454
ENCODING 1108
SWIDTH 600 0
DWIDTH 5 0
BBX 3 4 1 0
BITMAP
E0
80
C0
E0
ENDCHAR
STARTCHAR 0455
ENCODING 1109
SWIDTH 600 0
DWIDTH 5 0
BBX 4 4 0 0
BITMAP
70
40
30
F0
ENDCHAR
STARTCHAR 0456
ENCODING 1110
SWIDTH 600 0
DWIDTH 5 0
BBX 3 6 1 0
BITMAP
40
00
C0
40
40
E0
ENDCHAR
STARTCHAR 0457
ENCODING 1111
SWIDTH 600 0
DWIDTH 5 0
BBX 3 6 1 0
BITMAP
A0
00
C0
40
40
E0
ENDCHAR
STARTCHAR 0458
ENCODING 1112
SWIDTH 600 0
DWIDTH 5 0
BBX 3 8 1 -2
BITMAP
60
00
C0
40
40
40
40
C0
ENDCHAR
STARTCHAR 0459
ENCODING 1113
SWIDTH 600 0
DWIDTH 5 0
BBX 5 4 0 0
BITMAP
60
70
A8
B0
ENDCHAR
STARTCHAR 045A
ENCODING 1114
SWIDTH 600 0
DWIDTH 5 0
BBX 5 4 0 0
BITMAP
A0
B0
E8
B0
ENDCHAR
STARTCHAR 045B
ENCODING 1115
SWIDTH 600 0
DWIDTH 5 0
BBX 4 6 0 0
BITMAP
40
E0
70
50
50
50
ENDCHAR
STARTCHAR 045C
ENCODING 1116
SWIDTH 600 0
DWIDTH 5 0
BBX 3 6 1 0
BITMAP
40
00
A0
C0
C0
A0
ENDCHAR
STARTCHAR 045D
ENCODING 1117
SWIDTH 600 0
DWIDTH 5 0
BBX 3 6 1 0
BITMAP
C0
00
A0
E0
A0
A0
ENDCHAR
STARTCHAR 045E
ENCODING 1118
SWIDTH 600 0
DWIDTH 5 0
BBX 4 8 0 -2
BITMAP
50
20
90
50
60
20
20
40
ENDCHAR
STARTCHAR 045F
ENCODING 1119
SWIDTH 600 0
DWIDTH 5 0
BBX 3 5 1 -1
BITMAP
A0
A0
A0
E0
40
ENDCHAR
STARTCHAR 0472
ENCODING 1138
SWIDTH 600 0
DWIDTH 5 0
BBX 4 6 0 0
BITMAP
20
50
90
F0
90
70
ENDCHAR
STARTCHAR 0473
ENCODING 1139
SWIDTH 600 0
DWIDTH 5 0
BBX 4 4 0 0
BITMAP
70
90
F0
70
ENDCHAR
STARTCHAR 0490
ENCODING 1168
SWIDTH 600 0
DWIDTH 5 0
BBX 3 7 1 0
BITMAP
20
E0
80
80
80
80
80
ENDCHAR
STARTCHAR 0491
ENCODING 1169
SWIDTH 600 0
DWIDTH 5 0
BBX 3 5 1 0
BITMAP
20
E0
80
80
80
ENDCHAR
STARTCHAR 0492
ENCODING 1170
SWIDTH 600 0
DWIDTH 5 0
BBX 4 6 0 0
BITMAP
70
40
40
F0
40
40
ENDCHAR
STARTCHAR 0493
ENCODING 1171
SWIDTH 600 0
DWIDTH 5 0
BBX 4 4 0 0
BITMAP
70
40
E0
40
ENDCHAR
STARTCHAR 0494
ENCODING 1172
SWIDTH 600 0
DWIDTH 5 0
BBX 3 7 1 -1
BITMAP
E0
80
80
E0
A0
A0
60
ENDCHAR
STARTCHAR 0495
ENCODING 1173
SWIDTH 600 0
DWIDTH 5 0
BBX 3 6 1 -2
BITMAP
E0
80
E0
A0
20
60
ENDCHAR
STARTCHAR 0496
ENCODING 1174
SWIDTH 600 0
DWIDTH 5 0
BBX 5 7 0 -1
BITMAP
A8
B0
B0
70
B0
A8
08
ENDCHAR
STARTCHAR 0497
ENCODING 1175
SWIDTH 600 0
DWIDTH 5 0
BBX 5 5 0 -1
BITMAP
B0
B0
F0
A8
08
ENDCHAR
STARTCHAR 0498
ENCODING 1176
SWIDTH 600 0
DWIDTH 5 0
BBX 4 7 0 -1
BITMAP
60
90
10
30
10
F0
20
ENDCHAR
STARTCHAR 0499
ENCODING 1177
SWIDTH 600 0
DWIDTH 5 0
BBX 4 5 0 -1
BITMAP
70
10
30
F0
20
ENDCHAR
STARTCHAR 049A
ENCODING 1178
SWIDTH 600 0
DWIDTH 5 0
BBX 4 7 1 -1
BITMAP
A0
A0
C0
C0
A0
B0
10
ENDCHAR
STARTCHAR 049B
ENCODING 1179
SWIDTH 600 0
DWIDTH 5 0
BBX 3 5 1 -1
BITMAP
A0
C0
C0
A0
20
ENDCHAR
STARTCHAR 049C
ENCODING 1180
SWIDTH 600 0
DWIDTH 5 0
BBX 5 6 0 0
BITMAP
90
90
D0
E0
D0
98
ENDCHAR
STARTCHAR 049D
ENCODING 1181
SWIDTH 600 0
DWIDTH 5 0
BBX 5 4 0 0
BITMAP
90
D0
F0
98
ENDCHAR
STARTCHAR 04A0
ENCODING 1184
SWIDTH 600 0
DWIDTH 5 0
BBX 5 6 0 0
BITMAP
C8
50
50
70
50
58
ENDCHAR
STARTCHAR 04A1
ENCODING 1185
SWIDTH 600 0
DWIDTH 5 0
BBX 5 4 0 0
BITMAP
D8
50
70
58
ENDCHAR
STARTCHAR 04A2
ENCODING 1186
SWIDTH 600 0
DWIDTH 5 0
BBX 4 7 1 -1
BITMAP
A0
A0
A0
E0
A0
B0
10
ENDCHAR
STARTCHAR 04A3
ENCODING 1187
SWIDTH 600 0
DWIDTH 5 0
BBX 4 5 1 -1
BITMAP
A0
A0
E0
B0
10
ENDCHAR
STARTCHAR 04A4
ENCODING 1188
SWIDTH 600 0
DWIDTH 5 0
BBX 5 6 0 0
BITMAP
B8
A0
A0
E0
A0
A0
ENDCHAR
STARTCHAR 04A5
ENCODING 1189
SWIDTH 600 0
DWIDTH 5 0
BBX 5 4 0 0
BITMAP
B8
A0
E0
A0
ENDCHAR
STARTCHAR 04AA
ENCODING 1194
SWIDTH 600 0
DWIDTH 5 0
BBX 4 7 0 -1
BITMAP
20
50
80
80
50
70
20
ENDCHAR
STARTCHAR 04AB
ENCODING 1195
SWIDTH 600 0
DWIDTH 5 0
BBX 3 5 1 -1
BITMAP
E0
80
80
E0
40
ENDCHAR
STARTCHAR 04AE
ENCODING 1198
SWIDTH 600 0
DWIDTH 5 0
BBX 5 6 0 0
BITMAP
88
50
50
20
20
20
ENDCHAR
STARTCHAR 04AF
ENCODING 1199
SWIDTH 600 0
DWIDTH 5 0
BBX 4 6 0 -2
BITMAP
D0
50
60
20
20
20
ENDCHAR
STARTCHAR 04B0
ENCODING 1200
SWIDTH 600 0
DWIDTH 5 0
BBX 5 6 0 0
BITMAP
88
50
50
20
70
20
ENDCHAR
STARTCHAR 04B1
ENCODING 1201
SWIDTH 600 0
DWIDTH 5 0
BBX 4 6 0 -2
BITMAP
D0
50
60
20
70
20
ENDCHAR
STARTCHAR 04B2
ENCODING 1202
SWIDTH 600 0
DWIDTH 5 0
BBX 5 7 0 -1
BITMAP
98
50
60
20
50
98
08
ENDCHAR
STARTCHAR 04B3
ENCODING 1203
SWIDTH 600 0
DWIDTH 5 0
BBX 5 5 0 -1
BITMAP
D0
20
60
58
88
ENDCHAR
STARTCHAR 04B6
ENCODING 1206
SWIDTH 600 0
DWIDTH 5 0
BBX 5 7 0 -1
BITMAP
90
90
90
70
10
18
08
ENDCHAR
STARTCHAR 04B7
ENCODING 1207
SWIDTH 600 0
DWIDTH 5 0
BBX 4 5 1 -1
BITMAP
A0
A0
E0
30
10
ENDCHAR
STARTCHAR 04B8
ENCODING 1208
SWIDTH 600 0
DWIDTH 5 0
BBX 4 6 0 0
BITMAP
90
90
B0
70
30
10
ENDCHAR
STARTCHAR 04B9
ENCODING 1209
SWIDTH 600 0
DWIDTH 5 0
BBX 3 4 1 0
BITMAP
A0
E0
E0
20
ENDCHAR
STARTCHAR 04BA
ENCODING 1210
SWIDTH 600 0
DWIDTH 5 0
BBX 3 6 1 0
BITMAP
80
80
E0
A0
A0
A0
ENDCHAR
STARTCHAR 04BB
ENCODING 1211
SWIDTH 600 0
DWIDTH 5 0
BBX 3 6 1 0
BITMAP
80
80
E0
A0
A0
A0
ENDCHAR
STARTCHAR 04C0
ENCODING 1216
SWIDTH 600 0
DWIDTH 5 0
BBX 3 6 1 0
BITMAP
E0
40
40
40
40
E0
ENDCHAR
STARTCHAR 04C1
ENCODING 1217
SWIDTH 600 0
DWIDTH 5 0
BBX 5 8 0 0
BITMAP
60
70
A8
B0
B0
70
B0
A8
ENDCHAR
STARTCHAR 04C2
ENCODING 1218
SWIDTH 600 0
DWIDTH 5 0
BBX 5 6 0 0
BITMAP
50
20
B8
B0
F0
B8
ENDCHAR
STARTCHAR 04CF
ENCODING 1231
SWIDTH 600 0
DWIDTH 5 0
BBX 3 6 1 0
BITMAP
E0
40
40
40
40
E0
ENDCHAR
STARTCHAR 04D0
ENCODING 1232
SWIDTH 600 0
DWIDTH 5 0
BBX 5 8 0 0
BITMAP
60
70
20
60
50
50
70
98
ENDCHAR
STARTCHAR 04D1
ENCODING 1233
SWIDTH 600 0
DWIDTH 5 0
BBX 4 6 0 0
BITMAP
50
20
70
10
F0
70
ENDCHAR
STARTCHAR 04D2
ENCODING 1234
SWIDTH 600 0
DWIDTH 5 0
BBX 5 7 0 0
BITMAP
50
20
60
50
50
70
98
ENDCHAR
STARTCHAR 04D3
ENCODING 1235
SWIDTH 600 0
DWIDTH 5 0
BBX 4 6 0 0
BITMAP
50
00
70
10
F0
70
ENDCHAR
STARTCHAR 04D4
ENCODING 1236
SWIDTH 600 0
DWIDTH 5 0
BBX 5 6 0 0
BITMAP
38
60
60
70
E0
B8
ENDCHAR
STARTCHAR 04D5
ENCODING 1237
SWIDTH 600 0
DWIDTH 5 0
BBX 5 4 0 0
BITMAP
F0
28
F0
F8
ENDCHAR
STARTCHAR 04D6
ENCODING 1238
SWIDTH 600 0
DWIDTH 5 0
BBX 3 8 1 0
BITMAP
C0
E0
E0
80
80
E0
80
E0
ENDCHAR
STARTCHAR 04D7
ENCODING 1239
SWIDTH 600 0
DWIDTH 5 0
BBX 4 6 0 0
BITMAP
50
20
70
90
E0
70
ENDCHAR
STARTCHAR 04D8
ENCODING 1240
SWIDTH 600 0
DWIDTH 5 0
BBX 4 6 0 0
BITMAP
60
90
10
F0
90
70
ENDCHAR
STARTCHAR 04D9
ENCODING 1241
SWIDTH 600 0
DWIDTH 5 0
BBX 4 4 0 0
BITMAP
70
10
F0
70
ENDCHAR
STARTCHAR 04DC
ENCODING 1244
SWIDTH 600 0
DWIDTH 5 0
BBX 5 7 0 0
BITMAP
50
A8
B0
B0
70
B0
A8
ENDCHAR
STARTCHAR 04DD
ENCODING 1245
SWIDTH 600 0
DWIDTH 5 0
BBX 5 6 0 0
BITMAP
50
00
B8
B0
F0
B8
ENDCHAR
STARTCHAR 04DE
ENCODING 1246
SWIDTH 600 0
DWIDTH 5 0
BBX 4 7 0 0
BITMAP
50
60
90
10
30
10
F0
ENDCHAR
STARTCHAR 04DF
ENCODING 1247
SWIDTH 600 0
DWIDTH 5 0
BBX 4 6 0 0
BITMAP
50
00
70
10
30
F0
ENDCHAR
STARTCHAR 04E2
ENCODING 1250
SWIDTH 600 0
DWIDTH 5 0
BBX 3 7 1 0
BITMAP
E0
A0
A0
E0
E0
A0
A0
ENDCHAR
STARTCHAR 04E3
ENCODING 1251
SWIDTH 600 0
DWIDTH 5 0
BBX 3 6 1 0
BITMAP
E0
00
A0
E0
A0
A0
ENDCHAR
STARTCHAR 04E4
ENCODING 1252
SWIDTH 600 0
DWIDTH 5 0
BBX 3 7 1 0
BITMAP
A0
A0
A0
E0
E0
A0
A0
ENDCHAR
STARTCHAR 04E5
ENCODING 1253
SWIDTH 600 0
DWIDTH 5 0
BBX 3 6 1 0
BITMAP
A0
00
A0
E0
A0
A0
ENDCHAR
STARTCHAR 04E6
ENCODING 1254
SWIDTH 600 0
DWIDTH 5 0
BBX 4 7 0 0
BITMAP
50
20
50
90
90
90
70
ENDCHAR
STARTCHAR 04E7
ENCODING 1255
SWIDTH 600 0
DWIDTH 5 0
BBX 4 6 0 0
BITMAP
50
00
70
90
90
70
ENDCHAR
STARTCHAR 04E8
ENCODING 1256
SWIDTH 600 0
DWIDTH 5 0
BBX 4 6 0 0
BITMAP
20
50
90
F0
90
70
ENDCHAR
STARTCHAR 04E9
ENCODING 1257
SWIDTH 600 0
DWIDTH 5 0
BBX 4 4 0 0
BITMAP
70
90
F0
70
ENDCHAR
STARTCHAR 04EE
ENCODING 1262
SWIDTH 600 0
DWIDTH 5 0
BBX 5 7 0 0
BITMAP
70
88
50
50
60
20
60
ENDCHAR
STARTCHAR 04EF
ENCODING 1263
SWIDTH 600 0
DWIDTH 5 0
BBX 4 8 0 -2
BITMAP
70
00
90
50
60
20
20
40
ENDCHAR
STARTCHAR 04F0
ENCODING 1264
SWIDTH 600 0
DWIDTH 5 0
BBX 5 7 0 0
BITMAP
50
88
50
50
60
20
60
ENDCHAR
STARTCHAR 04F1
ENCODING 1265
SWIDTH 600 0
DWIDTH 5 0
BBX 4 8 0 -2
BITMAP
50
00
90
50
60
20
20
40
ENDCHAR
STARTCHAR 04F2
ENCODING 1266
SWIDTH 600 0
DWIDTH 5 0
BBX 5 8 0 0
BITMAP
50
70
88
50
50
60
20
60
ENDCHAR
STARTCHAR 04F3
ENCODING 1267
SWIDTH 600 0
DWIDTH 5 0
BBX 4 8 0 -2
BITMAP
70
00
90
50
60
20
20
40
ENDCHAR
STARTCHAR 04F4
ENCODING 1268
SWIDTH 600 0
DWIDTH 5 0
BBX 4 7 0 0
BITMAP
50
90
90
90
70
10
10
ENDCHAR
STARTCHAR 04F5
ENCODING 1269
SWIDTH 600 0
DWIDTH 5 0
BBX 3 6 1 0
BITMAP
A0
00
A0
A0
E0
20
ENDCHAR
STARTCHAR 04F8
ENCODING 1272
SWIDTH 600 0
DWIDTH 5 0
BBX 4 7 0 0
BITMAP
50
90
90
90
F0
B0
F0
ENDCHAR
STARTCHAR 04F9
ENCODING 1273
SWIDTH 600 0
DWIDTH 5 0
BBX 4 6 0 0
BITMAP
50
00
90
F0
B0
F0
ENDCHAR
STARTCHAR 0E3F
ENCODING 3647
SWIDTH 600 0
DWIDTH 5 0
BBX 3 7 1 -1
BITMAP
C0
E0
E0
E0
E0
E0
40
ENDCHAR
STARTCHAR 1E80
ENCODING 7808
SWIDTH 600 0
DWIDTH 5 0
BBX 5 8 0 0
BITMAP
40
20
88
88
B0
F0
F0
50
ENDCHAR
STARTCHAR 1E81
ENCODING 7809
SWIDTH 600 0
DWIDTH 5 0
BBX 5 6 0 0
BITMAP
60
00
A8
F0
F0
50
ENDCHAR
STARTCHAR 1E82
ENCODING 7810
SWIDTH 600 0
DWIDTH 5 0
BBX 5 8 0 0
BITMAP
20
20
88
88
B0
F0
F0
50
ENDCHAR
STARTCHAR 1E83
ENCODING 7811
SWIDTH 600 0
DWIDTH 5 0
BBX 5 6 0 0
BITMAP
20
00
A8
F0
F0
50
ENDCHAR
STARTCHAR 1E84
ENCODING 7812
SWIDTH 600 0
DWIDTH 5 0
BBX 5 7 0 0
BITMAP
50
88
88
B0
F0
F0
50
ENDCHAR
STARTCHAR 1E85
ENCODING 7813
SWIDTH 600 0
DWIDTH 5 0
BBX 5 6 0 0
BITMAP
50
00
A8
F0
F0
50
ENDCHAR
STARTCHAR 1E9E
ENCODING 7838
SWIDTH 600 0
DWIDTH 5 0
BBX 5 6 0 0
BITMAP
F0
90
A0
98
88
B0
ENDCHAR
STARTCHAR 1EA0
ENCODING 7840
SWIDTH 600 0
DWIDTH 5 0
BBX 5 7 0 -1
BITMAP
20
60
50
50
70
90
28
ENDCHAR
STARTCHAR 1EA1
ENCODING 7841
SWIDTH 600 0
DWIDTH 5 0
BBX 4 5 0 -1
BITMAP
70
10
F0
70
60
ENDCHAR
STARTCHAR 1EA2
ENCODING 7842
SWIDTH 600 0
DWIDTH 5 0
BBX 5 8 0 0
BITMAP
20
20
20
60
50
50
70
98
ENDCHAR
STARTCHAR 1EA3
ENCODING 7843
SWIDTH 600 0
DWIDTH 5 0
BBX 4 6 0 0
BITMAP
60
00
70
10
F0
70
ENDCHAR
STARTCHAR 1EA4
ENCODING 7844
SWIDTH 600 0
DWIDTH 5 0
BBX 5 9 0 0
BITMAP
10
18
70
20
60
50
50
70
98
ENDCHAR
STARTCHAR 1EA5
ENCODING 7845
SWIDTH 600 0
DWIDTH 5 0
BBX 5 7 0 0
BITMAP
18
60
10
70
10
F0
70
ENDCHAR
STARTCHAR 1EA6
ENCODING 7846
SWIDTH 600 0
DWIDTH 5 0
BBX 5 9 0 0
BITMAP
80
40
70
20
60
50
50
70
98
ENDCHAR
STARTCHAR 1EA7
ENCODING 7847
SWIDTH 600 0
DWIDTH 5 0
BBX 4 7 0 0
BITMAP
80
60
10
70
10
F0
70
ENDCHAR
STARTCHAR 1EA8
ENCODING 7848
SWIDTH 600 0
DWIDTH 5 0
BBX 5 9 0 0
BITMAP
10
10
70
20
60
50
50
70
98
ENDCHAR
STARTCHAR 1EA9
ENCODING 7849
SWIDTH 600 0
DWIDTH 5 0
BBX 4 7 0 0
BITMAP
10
60
10
70
10
F0
70
ENDCHAR
STARTCHAR 1EAA
ENCODING 7850
SWIDTH 600 0
DWIDTH 5 0
BBX 5 9 0 0
BITMAP
40
30
70
20
60
50
50
70
98
ENDCHAR
STARTCHAR 1EAB
ENCODING 7851
SWIDTH 600 0
DWIDTH 5 0
BBX 4 7 0 0
BITMAP
F0
60
10
70
10
F0
70
ENDCHAR
STARTCHAR 1EAC
ENCODING 7852
SWIDTH 600 0
DWIDTH 5 0
BBX 5 9 0 -1
BITMAP
20
50
20
60
50
50
70
90
28
ENDCHAR
STARTCHAR 1EAD
ENCODING 7853
SWIDTH 600 0
DWIDTH 5 0
BBX 4 7 0 -1
BITMAP
60
10
70
10
F0
70
60
ENDCHAR
STARTCHAR 1EAE
ENCODING 7854
SWIDTH 600 0
DWIDTH 5 0
BBX 5 9 0 0
BITMAP
20
20
70
20
60
50
50
70
98
ENDCHAR
STARTCHAR 1EAF
ENCODING 7855
SWIDTH 600 0
DWIDTH 5 0
BBX 4 7 0 0
BITMAP
20
50
20
70
10
F0
70
ENDCHAR
STARTCHAR 1EB0
ENCODING 7856
SWIDTH 600 0
DWIDTH 5 0
BBX 5 9 0 0
BITMAP
40
20
70
20
60
50
50
70
98
ENDCHAR
STARTCHAR 1EB1
ENCODING 7857
SWIDTH 600 0
DWIDTH 5 0
BBX 4 7 0 0
BITMAP
40
70
20
70
10
F0
70
ENDCHAR
STARTCHAR 1EB2
ENCODING 7858
SWIDTH 600 0
DWIDTH 5 0
BBX 5 9 0 0
BITMAP
20
20
70
20
60
50
50
70
98
ENDCHAR
STARTCHAR 1EB3
ENCODING 7859
SWIDTH 600 0
DWIDTH 5 0
BBX 4 7 0 0
BITMAP
60
50
20
70
10
F0
70
ENDCHAR
STARTCHAR 1EB4
ENCODING 7860
SWIDTH 600 0
DWIDTH 5 0
BBX 5 9 0 0
BITMAP
40
30
70
20
60
50
50
70
98
ENDCHAR
STARTCHAR 1EB5
ENCODING 7861
SWIDTH 600 0
DWIDTH 5 0
BBX 4 7 0 0
BITMAP
F0
50
20
70
10
F0
70
ENDCHAR
STARTCHAR 1EB6
ENCODING 7862
SWIDTH 600 0
DWIDTH 5 0
BBX 5 9 0 -1
BITMAP
60
70
20
60
50
50
70
90
28
ENDCHAR
STARTCHAR 1EB7
ENCODING 7863
SWIDTH 600 0
DWIDTH 5 0
BBX 4 7 0 -1
BITMAP
50
20
70
10
F0
70
60
ENDCHAR
STARTCHAR 1EB8
ENCODING 7864
SWIDTH 600 0
DWIDTH 5 0
BBX 3 7 1 -1
BITMAP
E0
80
80
E0
80
E0
40
ENDCHAR
STARTCHAR 1EB9
ENCODING 7865
SWIDTH 600 0
DWIDTH 5 0
BBX 4 5 0 -1
BITMAP
70
90
E0
70
20
ENDCHAR
STARTCHAR 1EBA
ENCODING 7866
SWIDTH 600 0
DWIDTH 5 0
BBX 3 8 1 0
BITMAP
40
40
E0
80
80
E0
80
E0
ENDCHAR
STARTCHAR 1EBB
ENCODING 7867
SWIDTH 600 0
DWIDTH 5 0
BBX 4 6 0 0
BITMAP
20
00
70
90
E0
70
ENDCHAR
STARTCHAR 1EBC
ENCODING 7868
SWIDTH 600 0
DWIDTH 5 0
BBX 3 7 1 0
BITMAP
E0
E0
80
80
E0
80
E0
ENDCHAR
STARTCHAR 1EBD
ENCODING 7869
SWIDTH 600 0
DWIDTH 5 0
BBX 4 6 0 0
BITMAP
70
00
70
90
E0
70
ENDCHAR
STARTCHAR 1EBE
ENCODING 7870
SWIDTH 600 0
DWIDTH 5 0
BBX 4 9 1 0
BITMAP
10
20
E0
E0
80
80
E0
80
E0
ENDCHAR
STARTCHAR 1EBF
ENCODING 7871
SWIDTH 600 0
DWIDTH 5 0
BBX 5 7 0 0
BITMAP
18
20
50
70
90
E0
70
ENDCHAR
STARTCHAR 1EC0
ENCODING 7872
SWIDTH 600 0
DWIDTH 5 0
BBX 4 9 0 0
BITMAP
80
40
70
70
40
40
70
40
70
ENDCHAR
STARTCHAR 1EC1
ENCODING 7873
SWIDTH 600 0
DWIDTH 5 0
BBX 4 7 0 0
BITMAP
80
60
50
70
90
E0
70
ENDCHAR
STARTCHAR 1EC2
ENCODING 7874
SWIDTH 600 0
DWIDTH 5 0
BBX 3 9 1 0
BITMAP
20
20
E0
E0
80
80
E0
80
E0
ENDCHAR
STARTCHAR 1EC3
ENCODING 7875
SWIDTH 600 0
DWIDTH 5 0
BBX 4 7 0 0
BITMAP
10
20
50
70
90
E0
70
ENDCHAR
STARTCHAR 1EC4
ENCODING 7876
SWIDTH 600 0
DWIDTH 5 0
BBX 3 9 1 0
BITMAP
80
60
E0
E0
80
80
E0
80
E0
ENDCHAR
STARTCHAR 1EC5
ENCODING 7877
SWIDTH 600 0
DWIDTH 5 0
BBX 4 7 0 0
BITMAP
F0
20
50
70
90
E0
70
ENDCHAR
STARTCHAR 1EC6
ENCODING 7878
SWIDTH 600 0
DWIDTH 5 0
BBX 3 9 1 -1
BITMAP
40
A0
E0
80
80
E0
80
E0
40
ENDCHAR
STARTCHAR 1EC7
ENCODING 7879
SWIDTH 600 0
DWIDTH 5 0
BBX 4 7 0 -1
BITMAP
60
10
70
90
E0
70
20
ENDCHAR
STARTCHAR 1EC8
ENCODING 7880
SWIDTH 600 0
DWIDTH 5 0
BBX 3 8 1 0
BITMAP
40
40
E0
40
40
40
40
E0
ENDCHAR
STARTCHAR 1EC9
ENCODING 7881
SWIDTH 600 0
DWIDTH 5 0
BBX 3 6 1 0
BITMAP
60
00
C0
40
40
E0
ENDCHAR
STARTCHAR 1ECA
ENCODING 7882
SWIDTH 600 0
DWIDTH 5 0
BBX 3 7 1 -1
BITMAP
E0
40
40
40
40
E0
40
ENDCHAR
STARTCHAR 1ECB
ENCODING 7883
SWIDTH 600 0
DWIDTH 5 0
BBX 3 7 1 -1
BITMAP
40
00
C0
40
40
E0
40
ENDCHAR
STARTCHAR 1ECC
ENCODING 7884
SWIDTH 600 0
DWIDTH 5 0
BBX 4 7 0 -1
BITMAP
20
50
90
90
90
70
20
ENDCHAR
STARTCHAR 1ECD
ENCODING 7885
SWIDTH 600 0
DWIDTH 5 0
BBX 4 5 0 -1
BITMAP
70
90
90
70
20
ENDCHAR
STARTCHAR 1ECE
ENCODING 7886
SWIDTH 600 0
DWIDTH 5 0
BBX 4 8 0 0
BITMAP
20
20
20
50
90
90
90
70
ENDCHAR
STARTCHAR 1ECF
ENCODING 7887
SWIDTH 600 0
DWIDTH 5 0
BBX 4 6 0 0
BITMAP
20
00
70
90
90
70
ENDCHAR
STARTCHAR 1ED0
ENCODING 7888
SWIDTH 600 0
DWIDTH 5 0
BBX 5 9 0 0
BITMAP
10
18
70
20
50
90
90
90
70
ENDCHAR
STARTCHAR 1ED1
ENCODING 7889
SWIDTH 600 0
DWIDTH 5 0
BBX 5 7 0 0
BITMAP
18
20
50
70
90
90
70
ENDCHAR
STARTCHAR 1ED2
ENCODING 7890
SWIDTH 600 0
DWIDTH 5 0
BBX 4 9 0 0
BITMAP
80
40
70
20
50
90
90
90
70
ENDCHAR
STARTCHAR 1ED3
ENCODING 7891
SWIDTH 600 0
DWIDTH 5 0
BBX 4 7 0 0
BITMAP
80
60
50
70
90
90
70
ENDCHAR
STARTCHAR 1ED4
ENCODING 7892
SWIDTH 600 0
DWIDTH 5 0
BBX 4 9 0 0
BITMAP
10
10
70
20
50
90
90
90
70
ENDCHAR
STARTCHAR 1ED5
ENCODING 7893
SWIDTH 600 0
DWIDTH 5 0
BBX 4 7 0 0
BITMAP
10
20
50
70
90
90
70
ENDCHAR
STARTCHAR 1ED6
ENCODING 7894
SWIDTH 600 0
DWIDTH 5 0
BBX 4 9 0 0
BITMAP
40
30
70
20
50
90
90
90
70
ENDCHAR
STARTCHAR 1ED7
ENCODING 7895
SWIDTH 600 0
DWIDTH 5 0
BBX 4 7 0 0
BITMAP
F0
20
50
70
90
90
70
ENDCHAR
STARTCHAR 1ED8
ENCODING 7896
SWIDTH 600 0
DWIDTH 5 0
BBX 4 9 0 -1
BITMAP
20
50
20
50
90
90
90
70
20
ENDCHAR
STARTCHAR 1ED9
ENCODING 7897
SWIDTH 600 0
DWIDTH 5 0
BBX 4 7 0 -1
BITMAP
60
10
70
90
90
70
20
ENDCHAR
STARTCHAR 1EDA
ENCODING 7898
SWIDTH 600 0
DWIDTH 5 0
BBX 5 8 0 0
BITMAP
20
20
38
50
90
90
90
70
ENDCHAR
STARTCHAR 1EDB
ENCODING 7899
SWIDTH 600 0
DWIDTH 5 0
BBX 4 6 0 0
BITMAP
20
10
70
90
90
70
ENDCHAR
STARTCHAR 1EDC
ENCODING 7900
SWIDTH 600 0
DWIDTH 5 0
BBX 5 8 0 0
BITMAP
40
20
38
50
90
90
90
70
ENDCHAR
STARTCHAR 1EDD
ENCODING 7901
SWIDTH 600 0
DWIDTH 5 0
BBX 4 6 0 0
BITMAP
60
10
70
90
90
70
ENDCHAR
STARTCHAR 1EDE
ENCODING 7902
SWIDTH 600 0
DWIDTH 5 0
BBX 5 8 0 0
BITMAP
20
20
38
50
90
90
90
70
ENDCHAR
STARTCHAR 1EDF
ENCODING 7903
SWIDTH 600 0
DWIDTH 5 0
BBX 4 6 0 0
BITMAP
20
10
70
90
90
70
ENDCHAR
STARTCHAR 1EE0
ENCODING 7904
SWIDTH 600 0
DWIDTH 5 0
BBX 5 7 0 0
BITMAP
70
38
50
90
90
90
70
ENDCHAR
STARTCHAR 1EE1
ENCODING 7905
SWIDTH 600 0
DWIDTH 5 0
BBX 4 6 0 0
BITMAP
60
10
70
90
90
70
ENDCHAR
STARTCHAR 1EE2
ENCODING 7906
SWIDTH 600 0
DWIDTH 5 0
BBX 5 7 0 -1
BITMAP
38
50
90
90
90
70
20
ENDCHAR
STARTCHAR 1EE3
ENCODING 7907
SWIDTH 600 0
DWIDTH 5 0
BBX 4 6 0 -1
BITMAP
10
70
90
90
70
20
ENDCHAR
STARTCHAR 1EE4
ENCODING 7908
SWIDTH 600 0
DWIDTH 5 0
BBX 3 7 1 -1
BITMAP
A0
A0
A0
A0
A0
E0
40
ENDCHAR
STARTCHAR 1EE5
ENCODING 7909
SWIDTH 600 0
DWIDTH 5 0
BBX 3 5 1 -1
BITMAP
A0
A0
A0
E0
40
ENDCHAR
STARTCHAR 1EE6
ENCODING 7910
SWIDTH 600 0
DWIDTH 5 0
BBX 3 8 1 0
BITMAP
40
40
A0
A0
A0
A0
A0
E0
ENDCHAR
STARTCHAR 1EE7
ENCODING 7911
SWIDTH 600 0
DWIDTH 5 0
BBX 3 6 1 0
BITMAP
40
00
A0
A0
A0
E0
ENDCHAR
STARTCHAR 1EE8
ENCODING 7912
SWIDTH 600 0
DWIDTH 5 0
BBX 4 8 1 0
BITMAP
40
40
B0
A0
A0
A0
A0
E0
ENDCHAR
STARTCHAR 1EE9
ENCODING 7913
SWIDTH 600 0
DWIDTH 5 0
BBX 4 6 1 0
BITMAP
40
10
A0
A0
A0
E0
ENDCHAR
STARTCHAR 1EEA
ENCODING 7914
SWIDTH 600 0
DWIDTH 5 0
BBX 4 8 1 0
BITMAP
80
40
B0
A0
A0
A0
A0
E0
ENDCHAR
STARTCHAR 1EEB
ENCODING 7915
SWIDTH 600 0
DWIDTH 5 0
BBX 4 6 1 0
BITMAP
C0
10
A0
A0
A0
E0
ENDCHAR
STARTCHAR 1EEC
ENCODING 7916
SWIDTH 600 0
DWIDTH 5 0
BBX 4 8 1 0
BITMAP
40
40
B0
A0
A0
A0
A0
E0
ENDCHAR
STARTCHAR 1EED
ENCODING 7917
SWIDTH 600 0
DWIDTH 5 0
BBX 4 6 1 0
BITMAP
40
10
A0
A0
A0
E0
ENDCHAR
STARTCHAR 1EEE
ENCODING 7918
SWIDTH 600 0
DWIDTH 5 0
BBX 4 7 1 0
BITMAP
E0
B0
A0
A0
A0
A0
E0
ENDCHAR
STARTCHAR 1EEF
ENCODING 7919
SWIDTH 600 0
DWIDTH 5 0
BBX 4 6 1 0
BITMAP
C0
30
A0
A0
A0
E0
ENDCHAR
STARTCHAR 1EF0
ENCODING 7920
SWIDTH 600 0
DWIDTH 5 0
BBX 4 7 1 -1
BITMAP
B0
A0
A0
A0
A0
E0
40
ENDCHAR
STARTCHAR 1EF1
ENCODING 7921
SWIDTH 600 0
DWIDTH 5 0
BBX 4 6 1 -1
BITMAP
10
A0
A0
A0
E0
40
ENDCHAR
STARTCHAR 1EF2
ENCODING 7922
SWIDTH 600 0
DWIDTH 5 0
BBX 5 8 0 0
BITMAP
40
20
88
50
50
20
20
20
ENDCHAR
STARTCHAR 1EF3
ENCODING 7923
SWIDTH 600 0
DWIDTH 5 0
BBX 4 8 0 -2
BITMAP
60
00
90
50
60
20
20
40
ENDCHAR
STARTCHAR 1EF4
ENCODING 7924
SWIDTH 600 0
DWIDTH 5 0
BBX 5 7 0 -1
BITMAP
88
50
50
20
20
20
20
ENDCHAR
STARTCHAR 1EF5
ENCODING 7925
SWIDTH 600 0
DWIDTH 5 0
BBX 4 6 0 -2
BITMAP
90
50
60
20
30
40
ENDCHAR
STARTCHAR 1EF6
ENCODING 7926
SWIDTH 600 0
DWIDTH 5 0
BBX 5 8 0 0
BITMAP
20
20
88
50
50
20
20
20
ENDCHAR
STARTCHAR 1EF7
ENCODING 7927
SWIDTH 600 0
DWIDTH 5 0
BBX 4 8 0 -2
BITMAP
20
00
90
50
60
20
20
40
ENDCHAR
STARTCHAR 1EF8
ENCODING 7928
SWIDTH 600 0
DWIDTH 5 0
BBX 5 7 0 0
BITMAP
70
88
50
50
20
20
20
ENDCHAR
STARTCHAR 1EF9
ENCODING 7929
SWIDTH 600 0
DWIDTH 5 0
BBX 4 8 0 -2
BITMAP
70
00
90
50
60
20
20
40
ENDCHAR
STARTCHAR 2013
ENCODING 8211
SWIDTH 600 0
DWIDTH 5 0
BBX 4 1 0 2
BITMAP
F0
ENDCHAR
STARTCHAR 2014
ENCODING 8212
SWIDTH 600 0
DWIDTH 5 0
BBX 5 1 0 2
BITMAP
F8
ENDCHAR
STARTCHAR 2018
ENCODING 8216
SWIDTH 600 0
DWIDTH 5 0
BBX 2 2 1 4
BITMAP
40
C0
ENDCHAR
STARTCHAR 2019
ENCODING 8217
SWIDTH 600 0
DWIDTH 5 0
BBX 1 2 2 4
BITMAP
80
80
ENDCHAR
STARTCHAR 201A
ENCODING 8218
SWIDTH 600 0
DWIDTH 5 0
BBX 1 2 2 -1
BITMAP
80
80
ENDCHAR
STARTCHAR 201C
ENCODING 8220
SWIDTH 600 0
DWIDTH 5 0
BBX 4 2 0 4
BITMAP
50
F0
ENDCHAR
STARTCHAR 201D
ENCODING 8221
SWIDTH 600 0
DWIDTH 5 0
BBX 3 2 1 4
BITMAP
A0
A0
ENDCHAR
STARTCHAR 201E
ENCODING 8222
SWIDTH 600 0
DWIDTH 5 0
BBX 3 2 1 -1
BITMAP
A0
A0
ENDCHAR
STARTCHAR 2020
ENCODING 8224
SWIDTH 600 0
DWIDTH 5 0
BBX 3 8 1 -2
BITMAP
40
40
E0
40
40
40
40
40
ENDCHAR
STARTCHAR 2021
ENCODING 8225
SWIDTH 600 0
DWIDTH 5 0
BBX 3 8 1 -2
BITMAP
40
40
E0
40
40
E0
40
40
ENDCHAR
STARTCHAR 2022
ENCODING 8226
SWIDTH 600 0
DWIDTH 5 0
BBX 2 2 1 1
BITMAP
C0
40
ENDCHAR
STARTCHAR 2026
ENCODING 8230
SWIDTH 600 0
DWIDTH 5 0
BBX 5 1 0 0
BITMAP
B8
ENDCHAR
STARTCHAR 2030
ENCODING 8240
SWIDTH 600 0
DWIDTH 5 0
BBX 5 6 0 0
BITMAP
C0
C0
D0
A0
78
78
ENDCHAR
STARTCHAR 2032
ENCODING 8242
SWIDTH 600 0
DWIDTH 5 0
BBX 1 3 2 3
BITMAP
80
80
80
ENDCHAR
STARTCHAR 2033
ENCODING 8243
SWIDTH 600 0
DWIDTH 5 0
BBX 3 3 1 3
BITMAP
A0
A0
C0
ENDCHAR
STARTCHAR 2039
ENCODING 8249
SWIDTH 600 0
DWIDTH 5 0
BBX 2 4 1 0
BITMAP
40
80
40
40
ENDCHAR
STARTCHAR 203A
ENCODING 8250
SWIDTH 600 0
DWIDTH 5 0
BBX 1 4 2 0
BITMAP
80
80
80
80
ENDCHAR
STARTCHAR 2044
ENCODING 8260
SWIDTH 600 0
DWIDTH 5 0
BBX 5 6 0 0
BITMAP
08
10
10
00
40
80
ENDCHAR
STARTCHAR 2070
ENCODING 8304
SWIDTH 600 0
DWIDTH 5 0
BBX 3 3 1 3
BITMAP
40
A0
E0
ENDCHAR
STARTCHAR 2074
ENCODING 8308
SWIDTH 600 0
DWIDTH 5 0
BBX 3 3 1 3
BITMAP
40
C0
E0
ENDCHAR
STARTCHAR 2075
ENCODING 8309
SWIDTH 600 0
DWIDTH 5 0
BBX 3 3 1 3
BITMAP
C0
C0
E0
ENDCHAR
STARTCHAR 2076
ENCODING 8310
SWIDTH 600 0
DWIDTH 5 0
BBX 3 3 1 3
BITMAP
40
C0
E0
ENDCHAR
STARTCHAR 2077
ENCODING 8311
SWIDTH 600 0
DWIDTH 5 0
BBX 3 3 1 3
BITMAP
E0
40
40
ENDCHAR
STARTCHAR 2078
ENCODING 8312
SWIDTH 600 0
DWIDTH 5 0
BBX 3 3 1 3
BITMAP
40
C0
E0
ENDCHAR
STARTCHAR 2079
ENCODING 8313
SWIDTH 600 0
DWIDTH 5 0
BBX 3 3 1 3
BITMAP
40
A0
40
ENDCHAR
STARTCHAR 2080
ENCODING 8320
SWIDTH 600 0
DWIDTH 5 0
BBX 3 3 1 0
BITMAP
C0
E0
C0
ENDCHAR
STARTCHAR 2081
ENCODING 8321
SWIDTH 600 0
DWIDTH 5 0
BBX 3 3 1 0
BITMAP
C0
40
E0
ENDCHAR
STARTCHAR 2082
ENCODING 8322
SWIDTH 600 0
DWIDTH 5 0
BBX 3 3 1 0
BITMAP
C0
40
E0
ENDCHAR
STARTCHAR 2083
ENCODING 8323
SWIDTH 600 0
DWIDTH 5 0
BBX 3 3 1 0
BITMAP
C0
40
E0
ENDCHAR
STARTCHAR 2084
ENCODING 8324
SWIDTH 600 0
DWIDTH 5 0
BBX 3 3 1 0
BITMAP
40
C0
60
ENDCHAR
STARTCHAR 2085
ENCODING 8325
SWIDTH 600 0
DWIDTH 5 0
BBX 3 3 1 0
BITMAP
C0
C0
E0
ENDCHAR
STARTCHAR 2086
ENCODING 8326
SWIDTH 600 0
DWIDTH 5 0
BBX 3 3 1 0
BITMAP
40
C0
E0
ENDCHAR
STARTCHAR 2087
ENCODING 8327
SWIDTH 600 0
DWIDTH 5 0
BBX 3 3 1 0
BITMAP
E0
40
40
ENDCHAR
STARTCHAR 2088
ENCODING 8328
SWIDTH 600 0
DWIDTH 5 0
BBX 3 3 1 0
BITMAP
C0
40
E0
ENDCHAR
STARTCHAR 2089
ENCODING 8329
SWIDTH 600 0
DWIDTH 5 0
BBX 3 3 1 0
BITMAP
C0
E0
40
ENDCHAR
STARTCHAR 20A1
ENCODING 8353
SWIDTH 600 0
DWIDTH 5 0
BBX 4 7 0 -1
BITMAP
30
70
E0
E0
E0
70
60
ENDCHAR
STARTCHAR 20A4
ENCODING 8356
SWIDTH 600 0
DWIDTH 5 0
BBX 4 6 0 0
BITMAP
30
50
40
E0
E0
70
ENDCHAR
STARTCHAR 20A6
ENCODING 8358
SWIDTH 600 0
DWIDTH 5 0
BBX 5 6 0 0
BITMAP
50
D0
B8
B8
F0
90
ENDCHAR
STARTCHAR 20A8
ENCODING 8360
SWIDTH 600 0
DWIDTH 5 0
BBX 5 6 0 0
BITMAP
C0
A0
B8
D0
A8
B8
ENDCHAR
STARTCHAR 20A9
ENCODING 8361
SWIDTH 600 0
DWIDTH 5 0
BBX 5 6 0 0
BITMAP
90
90
F8
E8
F0
50
ENDCHAR
STARTCHAR 20AA
ENCODING 8362
SWIDTH 600 0
DWIDTH 5 0
BBX 4 6 0 0
BITMAP
D0
B0
F0
F0
F0
B0
ENDCHAR
STARTCHAR 20AB
ENCODING 8363
SWIDTH 600 0
DWIDTH 5 0
BBX 3 6 1 0
BITMAP
20
60
E0
A0
E0
E0
ENDCHAR
STARTCHAR 20AC
ENCODING 8364
SWIDTH 600 0
DWIDTH 5 0
BBX 4 6 0 0
BITMAP
30
50
60
80
60
70
ENDCHAR
STARTCHAR 20AD
ENCODING 8365
SWIDTH 600 0
DWIDTH 5 0
BBX 5 6 0 0
BITMAP
58
50
60
F0
50
58
ENDCHAR
STARTCHAR 20AE
ENCODING 8366
SWIDTH 600 0
DWIDTH 5 0
BBX 5 6 0 0
BITMAP
F8
20
30
70
60
20
ENDCHAR
STARTCHAR 20B1
ENCODING 8369
SWIDTH 600 0
DWIDTH 5 0
BBX 5 6 0 0
BITMAP
60
50
F8
F8
60
40
ENDCHAR
STARTCHAR 20B2
ENCODING 8370
SWIDTH 600 0
DWIDTH 5 0
BBX 4 7 0 -1
BITMAP
20
70
A0
B0
B0
70
40
ENDCHAR
STARTCHAR 20B4
ENCODING 8372
SWIDTH 600 0
DWIDTH 5 0
BBX 5 6 0 0
BITMAP
60
90
F8
F8
40
70
ENDCHAR
STARTCHAR 20B5
ENCODING 8373
SWIDTH 600 0
DWIDTH 5 0
BBX 4 7 0 -1
BITMAP
20
70
A0
A0
B0
70
40
ENDCHAR
STARTCHAR 20B8
ENCODING 8376
SWIDTH 600 0
DWIDTH 5 0
BBX 4 6 0 0
BITMAP
F0
00
F0
20
20
20
ENDCHAR
STARTCHAR 20B9
ENCODING 8377
SWIDTH 600 0
DWIDTH 5 0
BBX 4 6 0 0
BITMAP
F0
20
F0
E0
20
10
ENDCHAR
STARTCHAR 20BA
ENCODING 8378
SWIDTH 600 0
DWIDTH 5 0
BBX 5 6 0 0
BITMAP
40
60
E0
60
D8
70
ENDCHAR
STARTCHAR 20BD
ENCODING 8381
SWIDTH 600 0
DWIDTH 5 0
BBX 4 6 0 0
BITMAP
60
50
50
F0
F0
40
ENDCHAR
STARTCHAR 20BF
ENCODING 8383
SWIDTH 600 0
DWIDTH 5 0
BBX 3 7 1 -1
BITMAP
C0
A0
A0
E0
A0
E0
C0
ENDCHAR
STARTCHAR 2113
ENCODING 8467
SWIDTH 600 0
DWIDTH 5 0
BBX 4 6 0 0
BITMAP
70
50
50
60
C0
70
ENDCHAR
STARTCHAR 2116
ENCODING 8470
SWIDTH 600 0
DWIDTH 5 0
BBX 5 6 0 0
BITMAP
B0
F8
F8
E0
F8
E0
ENDCHAR
STARTCHAR 2122
ENCODING 8482
SWIDTH 600 0
DWIDTH 5 0
BBX 4 3 0 3
BITMAP
F0
B0
B0
ENDCHAR
STARTCHAR 2126
ENCODING 8486
SWIDTH 600 0
DWIDTH 5 0
BBX 4 6 0 0
BITMAP
20
50
90
90
50
D0
ENDCHAR
STARTCHAR 212E
ENCODING 8494
SWIDTH 600 0
DWIDTH 5 0
BBX 5 6 0 0
BITMAP
20
D0
98
E0
80
70
ENDCHAR
STARTCHAR 2150
ENCODING 8528
SWIDTH 600 0
DWIDTH 5 0
BBX 5 6 0 0
BITMAP
48
D0
50
98
50
90
ENDCHAR
STARTCHAR 2151
ENCODING 8529
SWIDTH 600 0
DWIDTH 5 0
BBX 5 6 0 0
BITMAP
48
D0
50
90
68
90
ENDCHAR
STARTCHAR 2153
ENCODING 8531
SWIDTH 600 0
DWIDTH 5 0
BBX 5 6 0 0
BITMAP
48
D0
50
90
58
B8
ENDCHAR
STARTCHAR 2154
ENCODING 8532
SWIDTH 600 0
DWIDTH 5 0
BBX 5 6 0 0
BITMAP
48
D0
90
50
58
B8
ENDCHAR
STARTCHAR 2155
ENCODING 8533
SWIDTH 600 0
DWIDTH 5 0
BBX 5 6 0 0
BITMAP
48
D0
50
98
50
B8
ENDCHAR
STARTCHAR 2156
ENCODING 8534
SWIDTH 600 0
DWIDTH 5 0
BBX 5 6 0 0
BITMAP
48
D0
90
58
50
B8
ENDCHAR
STARTCHAR 2157
ENCODING 8535
SWIDTH 600 0
DWIDTH 5 0
BBX 5 6 0 0
BITMAP
48
D0
D0
18
50
B8
ENDCHAR
STARTCHAR 2158
ENCODING 8536
SWIDTH 600 0
DWIDTH 5 0
BBX 5 6 0 0
BITMAP
48
D0
D0
18
50
B8
ENDCHAR
STARTCHAR 2159
ENCODING 8537
SWIDTH 600 0
DWIDTH 5 0
BBX 5 6 0 0
BITMAP
48
D0
50
90
50
B8
ENDCHAR
STARTCHAR 215A
ENCODING 8538
SWIDTH 600 0
DWIDTH 5 0
BBX 5 6 0 0
BITMAP
C8
D0
D0
10
50
B8
ENDCHAR
STARTCHAR 215B
ENCODING 8539
SWIDTH 600 0
DWIDTH 5 0
BBX 5 6 0 0
BITMAP
48
D0
50
90
58
B8
ENDCHAR
STARTCHAR 215C
ENCODING 8540
SWIDTH 600 0
DWIDTH 5 0
BBX 5 6 0 0
BITMAP
48
D0
D0
10
58
B8
ENDCHAR
STARTCHAR 215D
ENCODING 8541
SWIDTH 600 0
DWIDTH 5 0
BBX 5 6 0 0
BITMAP
C8
D0
D0
10
58
B8
ENDCHAR
STARTCHAR 215E
ENCODING 8542
SWIDTH 600 0
DWIDTH 5 0
BBX 5 6 0 0
BITMAP
C8
50
50
10
58
B8
ENDCHAR
STARTCHAR 2190
ENCODING 8592
SWIDTH 600 0
DWIDTH 5 0
BBX 5 4 0 1
BITMAP
40
40
F8
40
ENDCHAR
STARTCHAR 2191
ENCODING 8593
SWIDTH 600 0
DWIDTH 5 0
BBX 3 6 1 0
BITMAP
40
E0
E0
40
40
40
ENDCHAR
STARTCHAR 2192
ENCODING 8594
SWIDTH 600 0
DWIDTH 5 0
BBX 5 4 0 1
BITMAP
20
10
F8
20
ENDCHAR
STARTCHAR 2193
ENCODING 8595
SWIDTH 600 0
DWIDTH 5 0
BBX 3 6 1 0
BITMAP
40
40
40
40
E0
40
ENDCHAR
STARTCHAR 2194
ENCODING 8596
SWIDTH 600 0
DWIDTH 5 0
BBX 5 3 0 1
BITMAP
50
F8
50
ENDCHAR
STARTCHAR 2195
ENCODING 8597
SWIDTH 600 0
DWIDTH 5 0
BBX 3 6 1 0
BITMAP
40
E0
E0
40
E0
40
ENDCHAR
STARTCHAR 2196
ENCODING 8598
SWIDTH 600 0
DWIDTH 5 0
BBX 5 4 0 1
BITMAP
E0
C0
A0
18
ENDCHAR
STARTCHAR 2197
ENCODING 8599
SWIDTH 600 0
DWIDTH 5 0
BBX 4 4 0 1
BITMAP
30
30
50
80
ENDCHAR
STARTCHAR 2198
ENCODING 8600
SWIDTH 600 0
DWIDTH 5 0
BBX 4 4 0 1
BITMAP
80
40
30
30
ENDCHAR
STARTCHAR 2199
ENCODING 8601
SWIDTH 600 0
DWIDTH 5 0
BBX 5 4 0 1
BITMAP
08
10
A0
E0
ENDCHAR
STARTCHAR 21A9
ENCODING 8617
SWIDTH 600 0
DWIDTH 5 0
BBX 5 4 0 1
BITMAP
10
48
F0
40
ENDCHAR
STARTCHAR 21AA
ENCODING 8618
SWIDTH 600 0
DWIDTH 5 0
BBX 5 4 0 1
BITMAP
C0
B0
F8
30
ENDCHAR
STARTCHAR 21B0
ENCODING 8624
SWIDTH 600 0
DWIDTH 5 0
BBX 4 6 0 0
BITMAP
40
60
F0
50
10
10
ENDCHAR
STARTCHAR 21B1
ENCODING 8625
SWIDTH 600 0
DWIDTH 5 0
BBX 4 6 1 0
BITMAP
40
20
F0
C0
80
80
ENDCHAR
STARTCHAR 21B2
ENCODING 8626
SWIDTH 600 0
DWIDTH 5 0
BBX 4 6 0 0
BITMAP
10
10
50
70
F0
20
ENDCHAR
STARTCHAR 21B3
ENCODING 8627
SWIDTH 600 0
DWIDTH 5 0
BBX 4 6 1 0
BITMAP
80
80
C0
A0
F0
40
ENDCHAR
STARTCHAR 21B6
ENCODING 8630
SWIDTH 600 0
DWIDTH 5 0
BBX 5 5 0 0
BITMAP
30
48
E0
70
40
ENDCHAR
STARTCHAR 21B7
ENCODING 8631
SWIDTH 600 0
DWIDTH 5 0
BBX 5 5 0 0
BITMAP
E0
A0
70
38
20
ENDCHAR
STARTCHAR 21BA
ENCODING 8634
SWIDTH 600 0
DWIDTH 5 0
BBX 5 6 0 0
BITMAP
38
70
B0
88
90
70
ENDCHAR
STARTCHAR 21BB
ENCODING 8635
SWIDTH 600 0
DWIDTH 5 0
BBX 5 6 0 0
BITMAP
E0
70
B0
88
90
70
ENDCHAR
STARTCHAR 21C4
ENCODING 8644
SWIDTH 600 0
DWIDTH 5 0
BBX 5 6 0 0
BITMAP
20
F0
18
60
F8
40
ENDCHAR
STARTCHAR 21C6
ENCODING 8646
SWIDTH 600 0
DWIDTH 5 0
BBX 5 6 0 0
BITMAP
40
F8
40
70
F8
30
ENDCHAR
STARTCHAR 2202
ENCODING 8706
SWIDTH 600 0
DWIDTH 5 0
BBX 4 6 0 0
BITMAP
40
30
70
90
90
70
ENDCHAR
STARTCHAR 2206
ENCODING 8710
SWIDTH 600 0
DWIDTH 5 0
BBX 4 6 0 0
BITMAP
20
60
50
50
90
F0
ENDCHAR
STARTCHAR 220F
ENCODING 8719
SWIDTH 600 0
DWIDTH 5 0
BBX 3 6 1 0
BITMAP
E0
A0
A0
A0
A0
A0
ENDCHAR
STARTCHAR 2211
ENCODING 8721
SWIDTH 600 0
DWIDTH 5 0
BBX 4 8 0 -2
BITMAP
F0
40
40
20
20
40
40
F0
ENDCHAR
STARTCHAR 2212
ENCODING 8722
SWIDTH 600 0
DWIDTH 5 0
BBX 4 1 0 2
BITMAP
F0
ENDCHAR
STARTCHAR 2215
ENCODING 8725
SWIDTH 600 0
DWIDTH 5 0
BBX 5 6 0 0
BITMAP
08
10
10
00
40
80
ENDCHAR
STARTCHAR 221A
ENCODING 8730
SWIDTH 600 0
DWIDTH 5 0
BBX 5 6 0 0
BITMAP
08
10
D0
50
60
20
ENDCHAR
STARTCHAR 221E
ENCODING 8734
SWIDTH 600 0
DWIDTH 5 0
BBX 5 3 0 1
BITMAP
D0
A8
D0
ENDCHAR
STARTCHAR 222B
ENCODING 8747
SWIDTH 600 0
DWIDTH 5 0
BBX 4 8 0 -2
BITMAP
30
20
20
20
20
20
20
C0
ENDCHAR
STARTCHAR 2248
ENCODING 8776
SWIDTH 600 0
DWIDTH 5 0
BBX 4 3 0 1
BITMAP
70
80
F0
ENDCHAR
STARTCHAR 2260
ENCODING 8800
SWIDTH 600 0
DWIDTH 5 0
BBX 4 4 0 0
BITMAP
F0
20
F0
40
ENDCHAR
STARTCHAR 2264
ENCODING 8804
SWIDTH 600 0
DWIDTH 5 0
BBX 3 5 1 0
BITMAP
20
C0
80
60
E0
ENDCHAR
STARTCHAR 2265
ENCODING 8805
SWIDTH 600 0
DWIDTH 5 0
BBX 3 5 1 0
BITMAP
80
60
60
80
E0
ENDCHAR
STARTCHAR 2500
ENCODING 9472
SWIDTH 600 0
DWIDTH 5 0
BBX 5 1 0 2
BITMAP
F8
ENDCHAR
STARTCHAR 2501
ENCODING 9473
SWIDTH 600 0
DWIDTH 5 0
BBX 5 1 0 2
BITMAP
F8
ENDCHAR
STARTCHAR 2502
ENCODING 9474
SWIDTH 600 0
DWIDTH 5 0
BBX 1 11 2 -3
BITMAP
80
80
80
80
80
80
80
80
80
80
80
ENDCHAR
STARTCHAR 2503
ENCODING 9475
SWIDTH 600 0
DWIDTH 5 0
BBX 1 11 2 -3
BITMAP
80
80
80
80
80
80
80
80
80
80
80
ENDCHAR
STARTCHAR 2504
ENCODING 9476
SWIDTH 600 0
DWIDTH 5 0
BBX 5 1 0 2
BITMAP
B8
ENDCHAR
STARTCHAR 2505
ENCODING 9477
SWIDTH 600 0
DWIDTH 5 0
BBX 5 1 0 2
BITMAP
B8
ENDCHAR
STARTCHAR 2506
ENCODING 9478
SWIDTH 600 0
DWIDTH 5 0
BBX 1 9 2 -2
BITMAP
80
80
80
80
00
80
80
00
80
ENDCHAR
STARTCHAR 2507
ENCODING 9479
SWIDTH 600 0
DWIDTH 5 0
BBX 1 9 2 -2
BITMAP
80
80
80
80
00
80
80
00
80
ENDCHAR
STARTCHAR 2508
ENCODING 9480
SWIDTH 600 0
DWIDTH 5 0
BBX 5 1 0 2
BITMAP
E8
ENDCHAR
STARTCHAR 2509
ENCODING 9481
SWIDTH 600 0
DWIDTH 5 0
BBX 5 1 0 2
BITMAP
E8
ENDCHAR
STARTCHAR 250A
ENCODING 9482
SWIDTH 600 0
DWIDTH 5 0
BBX 1 10 2 -3
BITMAP
80
00
80
00
80
00
80
00
80
80
ENDCHAR
STARTCHAR 250B
ENCODING 9483
SWIDTH 600 0
DWIDTH 5 0
BBX 1 10 2 -3
BITMAP
80
00
80
00
80
00
80
00
80
80
ENDCHAR
STARTCHAR 250C
ENCODING 9484
SWIDTH 600 0
DWIDTH 5 0
BBX 3 6 2 -3
BITMAP
E0
80
80
80
80
80
ENDCHAR
STARTCHAR 250D
ENCODING 9485
SWIDTH 600 0
DWIDTH 5 0
BBX 3 6 2 -3
BITMAP
E0
80
80
80
80
80
ENDCHAR
STARTCHAR 250E
ENCODING 9486
SWIDTH 600 0
DWIDTH 5 0
BBX 3 6 2 -3
BITMAP
E0
80
80
80
80
80
ENDCHAR
STARTCHAR 250F
ENCODING 9487
SWIDTH 600 0
DWIDTH 5 0
BBX 3 6 2 -3
BITMAP
E0
80
80
80
80
80
ENDCHAR
STARTCHAR 2510
ENCODING 9488
SWIDTH 600 0
DWIDTH 5 0
BBX 3 6 0 -3
BITMAP
E0
20
20
20
20
20
ENDCHAR
STARTCHAR 2511
ENCODING 9489
SWIDTH 600 0
DWIDTH 5 0
BBX 3 6 0 -3
BITMAP
E0
20
20
20
20
20
ENDCHAR
STARTCHAR 2512
ENCODING 9490
SWIDTH 600 0
DWIDTH 5 0
BBX 3 6 0 -3
BITMAP
E0
20
20
20
20
20
ENDCHAR
STARTCHAR 2513
ENCODING 9491
SWIDTH 600 0
DWIDTH 5 0
BBX 3 6 0 -3
BITMAP
E0
20
20
20
20
20
ENDCHAR
STARTCHAR 2514
ENCODING 9492
SWIDTH 600 0
DWIDTH 5 0
BBX 3 6 2 2
BITMAP
80
80
80
80
80
E0
ENDCHAR
STARTCHAR 2515
ENCODING 9493
SWIDTH 600 0
DWIDTH 5 0
BBX 3 6 2 2
BITMAP
80
80
80
80
80
E0
ENDCHAR
STARTCHAR 2516
ENCODING 9494
SWIDTH 600 0
DWIDTH 5 0
BBX 3 6 2 2
BITMAP
80
80
80
80
80
E0
ENDCHAR
STARTCHAR 2517
ENCODING 9495
SWIDTH 600 0
DWIDTH 5 0
BBX 3 6 2 2
BITMAP
80
80
80
80
80
E0
ENDCHAR
STARTCHAR 2518
ENCODING 9496
SWIDTH 600 0
DWIDTH 5 0
BBX 3 6 0 2
BITMAP
20
20
20
20
20
E0
ENDCHAR
STARTCHAR 2519
ENCODING 9497
SWIDTH 600 0
DWIDTH 5 0
BBX 3 6 0 2
BITMAP
20
20
20
20
20
E0
ENDCHAR
STARTCHAR 251A
ENCODING 9498
SWIDTH 600 0
DWIDTH 5 0
BBX 3 6 0 2
BITMAP
20
20
20
20
20
E0
ENDCHAR
STARTCHAR 251B
ENCODING 9499
SWIDTH 600 0
DWIDTH 5 0
BBX 3 6 0 2
BITMAP
20
20
20
20
20
E0
ENDCHAR
STARTCHAR 251C
ENCODING 9500
SWIDTH 600 0
DWIDTH 5 0
BBX 3 11 2 -3
BITMAP
80
80
80
80
80
E0
80
80
80
80
80
ENDCHAR
STARTCHAR 251D
ENCODING 9501
SWIDTH 600 0
DWIDTH 5 0
BBX 3 11 2 -3
BITMAP
80
80
80
80
80
E0
80
80
80
80
80
ENDCHAR
STARTCHAR 251E
ENCODING 9502
SWIDTH 600 0
DWIDTH 5 0
BBX 3 11 2 -3
BITMAP
80
80
80
80
80
E0
80
80
80
80
80
ENDCHAR
STARTCHAR 251F
ENCODING 9503
SWIDTH 600 0
DWIDTH 5 0
BBX 3 11 2 -3
BITMAP
80
80
80
80
80
E0
80
80
80
80
80
ENDCHAR
STARTCHAR 2520
ENCODING 9504
SWIDTH 600 0
DWIDTH 5 0
BBX 3 11 2 -3
BITMAP
80
80
80
80
80
E0
80
80
80
80
80
ENDCHAR
STARTCHAR 2521
ENCODING 9505
SWIDTH 600 0
DWIDTH 5 0
BBX 3 11 2 -3
BITMAP
80
80
80
80
80
E0
80
80
80
80
80
ENDCHAR
STARTCHAR 2522
ENCODING 9506
SWIDTH 600 0
DWIDTH 5 0
BBX 3 11 2 -3
BITMAP
80
80
80
80
80
E0
80
80
80
80
80
ENDCHAR
STARTCHAR 2523
ENCODING 9507
SWIDTH 600 0
DWIDTH 5 0
BBX 3 11 2 -3
BITMAP
80
80
80
80
80
E0
80
80
80
80
80
ENDCHAR
STARTCHAR 2524
ENCODING 9508
SWIDTH 600 0
DWIDTH 5 0
BBX 3 11 0 -3
BITMAP
20
20
20
20
20
E0
20
20
20
20
20
ENDCHAR
STARTCHAR 2525
ENCODING 9509
SWIDTH 600 0
DWIDTH 5 0
BBX 3 11 0 -3
BITMAP
20
20
20
20
20
E0
20
20
20
20
20
ENDCHAR
STARTCHAR 2526
ENCODING 9510
SWIDTH 600 0
DWIDTH 5 0
BBX 3 11 0 -3
BITMAP
20
20
20
20
20
E0
20
20
20
20
20
ENDCHAR
STARTCHAR 2527
ENCODING 9511
SWIDTH 600 0
DWIDTH 5 0
BBX 3 11 0 -3
BITMAP
20
20
20
20
20
E0
20
20
20
20
20
ENDCHAR
STARTCHAR 2528
ENCODING 9512
SWIDTH 600 0
DWIDTH 5 0
BBX 3 11 0 -3
BITMAP
20
20
20
20
20
E0
20
20
20
20
20
ENDCHAR
STARTCHAR 2529
ENCODING 9513
SWIDTH 600 0
DWIDTH 5 0
BBX 3 11 0 -3
BITMAP
20
20
20
20
20
E0
20
20
20
20
20
ENDCHAR
STARTCHAR 252A
ENCODING 9514
SWIDTH 600 0
DWIDTH 5 0
BBX 3 11 0 -3
BITMAP
20
20
20
20
20
E0
20
20
20
20
20
ENDCHAR
STARTCHAR 252B
ENCODING 9515
SWIDTH 600 0
DWIDTH 5 0
BBX 3 11 0 -3
BITMAP
20
20
20
20
20
E0
20
20
20
20
20
ENDCHAR
STARTCHAR 252C
ENCODING 9516
SWIDTH 600 0
DWIDTH 5 0
BBX 5 6 0 -3
BITMAP
F8
20
20
20
20
20
ENDCHAR
STARTCHAR 252D
ENCODING 9517
SWIDTH 600 0
DWIDTH 5 0
BBX 5 6 0 -3
BITMAP
F8
20
20
20
20
20
ENDCHAR
STARTCHAR 252E
ENCODING 9518
SWIDTH 600 0
DWIDTH 5 0
BBX 5 6 0 -3
BITMAP
F8
20
20
20
20
20
ENDCHAR
STARTCHAR 252F
ENCODING 9519
SWIDTH 600 0
DWIDTH 5 0
BBX 5 6 0 -3
BITMAP
F8
20
20
20
20
20
ENDCHAR
STARTCHAR 2530
ENCODING 9520
SWIDTH 600 0
DWIDTH 5 0
BBX 5 6 0 -3
BITMAP
F8
20
20
20
20
20
ENDCHAR
STARTCHAR 2531
ENCODING 9521
SWIDTH 600 0
DWIDTH 5 0
BBX 5 6 0 -3
BITMAP
F8
20
20
20
20
20
ENDCHAR
STARTCHAR 2532
ENCODING 9522
SWIDTH 600 0
DWIDTH 5 0
BBX 5 6 0 -3
BITMAP
F8
20
20
20
20
20
ENDCHAR
STARTCHAR 2533
ENCODING 9523
SWIDTH 600 0
DWIDTH 5 0
BBX 5 6 0 -3
BITMAP
F8
20
20
20
20
20
ENDCHAR
STARTCHAR 2534
ENCODING 9524
SWIDTH 600 0
DWIDTH 5 0
BBX 5 6 0 2
BITMAP
20
20
20
20
20
F8
ENDCHAR
STARTCHAR 2535
ENCODING 9525
SWIDTH 600 0
DWIDTH 5 0
BBX 5 6 0 2
BITMAP
20
20
20
20
20
F8
ENDCHAR
STARTCHAR 2536
ENCODING 9526
SWIDTH 600 0
DWIDTH 5 0
BBX 5 6 0 2
BITMAP
20
20
20
20
20
F8
ENDCHAR
STARTCHAR 2537
ENCODING 9527
SWIDTH 600 0
DWIDTH 5 0
BBX 5 6 0 2
BITMAP
20
20
20
20
20
F8
ENDCHAR
STARTCHAR 2538
ENCODING 9528
SWIDTH 600 0
DWIDTH 5 0
BBX 5 6 0 2
BITMAP
20
20
20
20
20
F8
ENDCHAR
STARTCHAR 2539
ENCODING 9529
SWIDTH 600 0
DWIDTH 5 0
BBX 5 6 0 2
BITMAP
20
20
20
20
20
F8
ENDCHAR
STARTCHAR 253A
ENCODING 9530
SWIDTH 600 0
DWIDTH 5 0
BBX 5 6 0 2
BITMAP
20
20
20
20
20
F8
ENDCHAR
STARTCHAR 253B
ENCODING 9531
SWIDTH 600 0
DWIDTH 5 0
BBX 5 6 0 2
BITMAP
20
20
20
20
20
F8
ENDCHAR
STARTCHAR 253C
ENCODING 9532
SWIDTH 600 0
DWIDTH 5 0
BBX 5 11 0 -3
BITMAP
20
20
20
20
20
F8
20
20
20
20
20
ENDCHAR
STARTCHAR 253D
ENCODING 9533
SWIDTH 600 0
DWIDTH 5 0
BBX 5 11 0 -3
BITMAP
20
20
20
20
20
F8
20
20
20
20
20
ENDCHAR
STARTCHAR 253E
ENCODING 9534
SWIDTH 600 0
DWIDTH 5 0
BBX 5 11 0 -3
BITMAP
20
20
20
20
20
F8
20
20
20
20
20
ENDCHAR
STARTCHAR 253F
ENCODING 9535
SWIDTH 600 0
DWIDTH 5 0
BBX 5 11 0 -3
BITMAP
20
20
20
20
20
F8
20
20
20
20
20
ENDCHAR
STARTCHAR 2540
ENCODING 9536
SWIDTH 600 0
DWIDTH 5 0
BBX 5 11 0 -3
BITMAP
20
20
20
20
20
F8
20
20
20
20
20
ENDCHAR
STARTCHAR 2541
ENCODING 9537
SWIDTH 600 0
DWIDTH 5 0
BBX 5 11 0 -3
BITMAP
20
20
20
20
20
F8
20
20
20
20
20
ENDCHAR
STARTCHAR 2542
ENCODING 9538
SWIDTH 600 0
DWIDTH 5 0
BBX 5 11 0 -3
BITMAP
20
20
20
20
20
F8
20
20
20
20
20
ENDCHAR
STARTCHAR 2543
ENCODING 9539
SWIDTH 600 0
DWIDTH 5 0
BBX 5 11 0 -3
BITMAP
20
20
20
20
20
F8
20
20
20
20
20
ENDCHAR
STARTCHAR 2544
ENCODING 9540
SWIDTH 600 0
DWIDTH 5 0
BBX 5 11 0 -3
BITMAP
20
20
20
20
20
F8
20
20
20
20
20
ENDCHAR
STARTCHAR 2545
ENCODING 9541
SWIDTH 600 0
DWIDTH 5 0
BBX 5 11 0 -3
BITMAP
20
20
20
20
20
F8
20
20
20
20
20
ENDCHAR
STARTCHAR 2546
ENCODING 9542
SWIDTH 600 0
DWIDTH 5 0
BBX 5 11 0 -3
BITMAP
20
20
20
20
20
F8
20
20
20
20
20
ENDCHAR
STARTCHAR 2547
ENCODING 9543
SWIDTH 600 0
DWIDTH 5 0
BBX 5 11 0 -3
BITMAP
20
20
20
20
20
F8
20
20
20
20
20
ENDCHAR
STARTCHAR 2548
ENCODING 9544
SWIDTH 600 0
DWIDTH 5 0
BBX 5 11 0 -3
BITMAP
20
20
20
20
20
F8
20
20
20
20
20
ENDCHAR
STARTCHAR 2549
ENCODING 9545
SWIDTH 600 0
DWIDTH 5 0
BBX 5 11 0 -3
BITMAP
20
20
20
20
20
F8
20
20
20
20
20
ENDCHAR
STARTCHAR 254A
ENCODING 9546
SWIDTH 600 0
DWIDTH 5 0
BBX 5 11 0 -3
BITMAP
20
20
20
20
20
F8
20
20
20
20
20
ENDCHAR
STARTCHAR 254B
ENCODING 9547
SWIDTH 600 0
DWIDTH 5 0
BBX 5 11 0 -3
BITMAP
20
20
20
20
20
F8
20
20
20
20
20
ENDCHAR
STARTCHAR 254C
ENCODING 9548
SWIDTH 600 0
DWIDTH 5 0
BBX 3 1 1 2
BITMAP
A0
ENDCHAR
STARTCHAR 254D
ENCODING 9549
SWIDTH 600 0
DWIDTH 5 0
BBX 3 1 1 2
BITMAP
A0
ENDCHAR
STARTCHAR 254E
ENCODING 9550
SWIDTH 600 0
DWIDTH 5 0
BBX 1 7 2 -1
BITMAP
80
80
80
00
00
80
80
ENDCHAR
STARTCHAR 254F
ENCODING 9551
SWIDTH 600 0
DWIDTH 5 0
BBX 1 7 2 -1
BITMAP
80
80
80
00
00
80
80
ENDCHAR
STARTCHAR 2550
ENCODING 9552
SWIDTH 600 0
DWIDTH 5 0
BBX 5 1 0 2
BITMAP
F8
ENDCHAR
STARTCHAR 2551
ENCODING 9553
SWIDTH 600 0
DWIDTH 5 0
BBX 1 11 2 -3
BITMAP
80
80
80
80
80
80
80
80
80
80
80
ENDCHAR
STARTCHAR 2552
ENCODING 9554
SWIDTH 600 0
DWIDTH 5 0
BBX 3 6 2 -3
BITMAP
E0
E0
80
80
80
80
ENDCHAR
STARTCHAR 2553
ENCODING 9555
SWIDTH 600 0
DWIDTH 5 0
BBX 3 6 2 -3
BITMAP
E0
80
80
80
80
80
ENDCHAR
STARTCHAR 2554
ENCODING 9556
SWIDTH 600 0
DWIDTH 5 0
BBX 3 6 2 -3
BITMAP
E0
E0
80
80
80
80
ENDCHAR
STARTCHAR 2555
ENCODING 9557
SWIDTH 600 0
DWIDTH 5 0
BBX 3 6 0 -3
BITMAP
E0
E0
20
20
20
20
ENDCHAR
STARTCHAR 2556
ENCODING 9558
SWIDTH 600 0
DWIDTH 5 0
BBX 3 6 0 -3
BITMAP
E0
60
60
60
60
60
ENDCHAR
STARTCHAR 2557
ENCODING 9559
SWIDTH 600 0
DWIDTH 5 0
BBX 3 6 0 -3
BITMAP
E0
E0
60
60
60
60
ENDCHAR
STARTCHAR 2558
ENCODING 9560
SWIDTH 600 0
DWIDTH 5 0
BBX 3 6 2 2
BITMAP
80
80
80
80
80
E0
ENDCHAR
STARTCHAR 2559
ENCODING 9561
SWIDTH 600 0
DWIDTH 5 0
BBX 3 6 2 2
BITMAP
80
80
80
80
80
E0
ENDCHAR
STARTCHAR 255A
ENCODING 9562
SWIDTH 600 0
DWIDTH 5 0
BBX 3 6 2 2
BITMAP
80
80
80
80
80
E0
ENDCHAR
STARTCHAR 255B
ENCODING 9563
SWIDTH 600 0
DWIDTH 5 0
BBX 3 6 0 2
BITMAP
20
20
20
20
20
E0
ENDCHAR
STARTCHAR 255C
ENCODING 9564
SWIDTH 600 0
DWIDTH 5 0
BBX 3 6 0 2
BITMAP
60
60
60
60
60
E0
ENDCHAR
STARTCHAR 255D
ENCODING 9565
SWIDTH 600 0
DWIDTH 5 0
BBX 3 6 0 2
BITMAP
60
60
60
60
60
E0
ENDCHAR
STARTCHAR 255E
ENCODING 9566
SWIDTH 600 0
DWIDTH 5 0
BBX 3 11 2 -3
BITMAP
80
80
80
80
80
E0
E0
80
80
80
80
ENDCHAR
STARTCHAR 255F
ENCODING 9567
SWIDTH 600 0
DWIDTH 5 0
BBX 3 11 2 -3
BITMAP
80
80
80
80
80
E0
80
80
80
80
80
ENDCHAR
STARTCHAR 2560
ENCODING 9568
SWIDTH 600 0
DWIDTH 5 0
BBX 3 11 2 -3
BITMAP
80
80
80
80
80
E0
E0
80
80
80
80
ENDCHAR
STARTCHAR 2561
ENCODING 9569
SWIDTH 600 0
DWIDTH 5 0
BBX 3 11 0 -3
BITMAP
20
20
20
20
20
E0
E0
20
20
20
20
ENDCHAR
STARTCHAR 2562
ENCODING 9570
SWIDTH 600 0
DWIDTH 5 0
BBX 3 11 0 -3
BITMAP
60
60
60
60
60
E0
60
60
60
60
60
ENDCHAR
STARTCHAR 2563
ENCODING 9571
SWIDTH 600 0
DWIDTH 5 0
BBX 3 11 0 -3
BITMAP
60
60
60
60
60
A0
E0
60
60
60
60
ENDCHAR
STARTCHAR 2564
ENCODING 9572
SWIDTH 600 0
DWIDTH 5 0
BBX 5 6 0 -3
BITMAP
F8
F8
20
20
20
20
ENDCHAR
STARTCHAR 2565
ENCODING 9573
SWIDTH 600 0
DWIDTH 5 0
BBX 5 6 0 -3
BITMAP
F8
60
60
60
60
60
ENDCHAR
STARTCHAR 2566
ENCODING 9574
SWIDTH 600 0
DWIDTH 5 0
BBX 5 6 0 -3
BITMAP
F8
F8
60
60
60
60
ENDCHAR
STARTCHAR 2567
ENCODING 9575
SWIDTH 600 0
DWIDTH 5 0
BBX 5 6 0 2
BITMAP
20
20
20
20
20
F8
ENDCHAR
STARTCHAR 2568
ENCODING 9576
SWIDTH 600 0
DWIDTH 5 0
BBX 5 6 0 2
BITMAP
60
60
60
60
60
F8
ENDCHAR
STARTCHAR 2569
ENCODING 9577
SWIDTH 600 0
DWIDTH 5 0
BBX 5 6 0 2
BITMAP
60
60
60
60
60
F8
ENDCHAR
STARTCHAR 256A
ENCODING 9578
SWIDTH 600 0
DWIDTH 5 0
BBX 5 11 0 -3
BITMAP
20
20
20
20
20
F8
F8
20
20
20
20
ENDCHAR
STARTCHAR 256B
ENCODING 9579
SWIDTH 600 0
DWIDTH 5 0
BBX 5 11 0 -3
BITMAP
60
60
60
60
60
F8
60
60
60
60
60
ENDCHAR
STARTCHAR 256C
ENCODING 9580
SWIDTH 600 0
DWIDTH 5 0
BBX 5 11 0 -3
BITMAP
60
60
60
60
60
98
F8
60
60
60
60
ENDCHAR
STARTCHAR 256D
ENCODING 9581
SWIDTH 600 0
DWIDTH 5 0
BBX 3 6 2 -3
BITMAP
20
C0
80
80
80
80
ENDCHAR
STARTCHAR 256E
ENCODING 9582
SWIDTH 600 0
DWIDTH 5 0
BBX 3 6 0 -3
BITMAP
80
40
20
20
20
20
ENDCHAR
STARTCHAR 256F
ENCODING 9583
SWIDTH 600 0
DWIDTH 5 0
BBX 3 6 0 2
BITMAP
20
20
20
20
40
80
ENDCHAR
STARTCHAR 2570
ENCODING 9584
SWIDTH 600 0
DWIDTH 5 0
BBX 3 6 2 2
BITMAP
80
80
80
80
80
60
ENDCHAR
STARTCHAR 2571
ENCODING 9585
SWIDTH 600 0
DWIDTH 5 0
BBX 5 9 0 -2
BITMAP
08
10
10
20
20
40
40
80
80
ENDCHAR
STARTCHAR 2572
ENCODING 9586
SWIDTH 600 0
DWIDTH 5 0
BBX 5 9 0 -2
BITMAP
80
80
40
40
20
20
10
10
08
ENDCHAR
STARTCHAR 2573
ENCODING 9587
SWIDTH 600 0
DWIDTH 5 0
BBX 5 9 0 -2
BITMAP
88
90
50
60
20
60
50
90
88
ENDCHAR
STARTCHAR 2574
ENCODING 9588
SWIDTH 600 0
DWIDTH 5 0
BBX 3 1 0 2
BITMAP
E0
ENDCHAR
STARTCHAR 2575
ENCODING 9589
SWIDTH 600 0
DWIDTH 5 0
BBX 1 6 2 2
BITMAP
80
80
80
80
80
80
ENDCHAR
STARTCHAR 2576
ENCODING 9590
SWIDTH 600 0
DWIDTH 5 0
BBX 3 1 2 2
BITMAP
E0
ENDCHAR
STARTCHAR 2577
ENCODING 9591
SWIDTH 600 0
DWIDTH 5 0
BBX 1 6 2 -3
BITMAP
80
80
80
80
80
80
ENDCHAR
STARTCHAR 2578
ENCODING 9592
SWIDTH 600 0
DWIDTH 5 0
BBX 3 1 0 2
BITMAP
E0
ENDCHAR
STARTCHAR 2579
ENCODING 9593
SWIDTH 600 0
DWIDTH 5 0
BBX 1 6 2 2
BITMAP
80
80
80
80
80
80
ENDCHAR
STARTCHAR 257A
ENCODING 9594
SWIDTH 600 0
DWIDTH 5 0
BBX 3 1 2 2
BITMAP
E0
ENDCHAR
STARTCHAR 257B
ENCODING 9595
SWIDTH 600 0
DWIDTH 5 0
BBX 1 6 2 -3
BITMAP
80
80
80
80
80
80
ENDCHAR
STARTCHAR 257C
ENCODING 9596
SWIDTH 600 0
DWIDTH 5 0
BBX 5 1 0 2
BITMAP
F8
ENDCHAR
STARTCHAR 257D
ENCODING 9597
SWIDTH 600 0
DWIDTH 5 0
BBX 1 11 2 -3
BITMAP
80
80
80
80
80
80
80
80
80
80
80
ENDCHAR
STARTCHAR 257E
ENCODING 9598
SWIDTH 600 0
DWIDTH 5 0
BBX 5 1 0 2
BITMAP
F8
ENDCHAR
STARTCHAR 257F
ENCODING 9599
SWIDTH 600 0
DWIDTH 5 0
BBX 1 11 2 -3
BITMAP
80
80
80
80
80
80
80
80
80
80
80
ENDCHAR
STARTCHAR 2580
ENCODING 9600
SWIDTH 600 0
DWIDTH 5 0
BBX 5 6 0 2
BITMAP
F8
F8
F8
F8
F8
F8
ENDCHAR
STARTCHAR 2581
ENCODING 9601
SWIDTH 600 0
DWIDTH 5 0
BBX 5 2 0 -3
BITMAP
F8
F8
ENDCHAR
STARTCHAR 2582
ENCODING 9602
SWIDTH 600 0
DWIDTH 5 0
BBX 5 3 0 -3
BITMAP
F8
F8
F8
ENDCHAR
STARTCHAR 2583
ENCODING 9603
SWIDTH 600 0
DWIDTH 5 0
BBX 5 4 0 -3
BITMAP
F8
F8
F8
F8
ENDCHAR
STARTCHAR 2584
ENCODING 9604
SWIDTH 600 0
DWIDTH 5 0
BBX 5 5 0 -3
BITMAP
F8
F8
F8
F8
F8
ENDCHAR
STARTCHAR 2585
ENCODING 9605
SWIDTH 600 0
DWIDTH 5 0
BBX 5 7 0 -3
BITMAP
F8
F8
F8
F8
F8
F8
F8
ENDCHAR
STARTCHAR 2586
ENCODING 9606
SWIDTH 600 0
DWIDTH 5 0
BBX 5 8 0 -3
BITMAP
F8
F8
F8
F8
F8
F8
F8
F8
ENDCHAR
STARTCHAR 2587
ENCODING 9607
SWIDTH 600 0
DWIDTH 5 0
BBX 5 9 0 -3
BITMAP
F8
F8
F8
F8
F8
F8
F8
F8
F8
ENDCHAR
STARTCHAR 2588
ENCODING 9608
SWIDTH 600 0
DWIDTH 5 0
BBX 5 11 0 -3
BITMAP
F8
F8
F8
F8
F8
F8
F8
F8
F8
F8
F8
ENDCHAR
STARTCHAR 2589
ENCODING 9609
SWIDTH 600 0
DWIDTH 5 0
BBX 4 11 0 -3
BITMAP
F0
F0
F0
F0
F0
F0
F0
F0
F0
F0
F0
ENDCHAR
STARTCHAR 258A
ENCODING 9610
SWIDTH 600 0
DWIDTH 5 0
BBX 4 11 0 -3
BITMAP
F0
F0
F0
F0
F0
F0
F0
F0
F0
F0
F0
ENDCHAR
STARTCHAR 258B
ENCODING 9611
SWIDTH 600 0
DWIDTH 5 0
BBX 3 11 0 -3
BITMAP
E0
E0
E0
E0
E0
E0
E0
E0
E0
E0
E0
ENDCHAR
STARTCHAR 258C
ENCODING 9612
SWIDTH 600 0
DWIDTH 5 0
BBX 2 11 0 -3
BITMAP
C0
C0
C0
C0
C0
C0
C0
C0
C0
C0
C0
ENDCHAR
STARTCHAR 258D
ENCODING 9613
SWIDTH 600 0
DWIDTH 5 0
BBX 2 11 0 -3
BITMAP
C0
C0
C0
C0
C0
C0
C0
C0
C0
C0
C0
ENDCHAR
STARTCHAR 258E
ENCODING 9614
SWIDTH 600 0
DWIDTH 5 0
BBX 1 11 0 -3
BITMAP
80
80
80
80
80
80
80
80
80
80
80
ENDCHAR
STARTCHAR 258F
ENCODING 9615
SWIDTH 600 0
DWIDTH 5 0
BBX 1 11 0 -3
BITMAP
80
80
80
80
80
80
80
80
80
80
80
ENDCHAR
STARTCHAR 2590
ENCODING 9616
SWIDTH 600 0
DWIDTH 5 0
BBX 3 11 2 -3
BITMAP
E0
E0
E0
E0
E0
E0
E0
E0
E0
E0
E0
ENDCHAR
STARTCHAR 2591
ENCODING 9617
SWIDTH 600 0
DWIDTH 5 0
BBX 4 10 0 -2
BITMAP
B0
40
E0
B0
40
E0
B0
40
E0
F0
ENDCHAR
STARTCHAR 2592
ENCODING 9618
SWIDTH 600 0
DWIDTH 5 0
BBX 4 10 0 -2
BITMAP
B0
F0
E0
B0
F0
E0
B0
F0
E0
F0
ENDCHAR
STARTCHAR 2593
ENCODING 9619
SWIDTH 600 0
DWIDTH 5 0
BBX 5 11 0 -3
BITMAP
B8
F8
F0
B8
F8
D0
B8
F8
D0
B8
E0
ENDCHAR
STARTCHAR 2594
ENCODING 9620
SWIDTH 600 0
DWIDTH 5 0
BBX 5 2 0 6
BITMAP
F8
F8
ENDCHAR
STARTCHAR 2595
ENCODING 9621
SWIDTH 600 0
DWIDTH 5 0
BBX 1 11 4 -3
BITMAP
80
80
80
80
80
80
80
80
80
80
80
ENDCHAR
STARTCHAR 2596
ENCODING 9622
SWIDTH 600 0
DWIDTH 5 0
BBX 2 5 0 -3
BITMAP
C0
C0
C0
C0
C0
ENDCHAR
STARTCHAR 2597
ENCODING 9623
SWIDTH 600 0
DWIDTH 5 0
BBX 3 5 2 -3
BITMAP
E0
E0
E0
E0
E0
ENDCHAR
STARTCHAR 2598
ENCODING 9624
SWIDTH 600 0
DWIDTH 5 0
BBX 2 6 0 2
BITMAP
C0
C0
C0
C0
C0
C0
ENDCHAR
STARTCHAR 2599
ENCODING 9625
SWIDTH 600 0
DWIDTH 5 0
BBX 5 11 0 -3
BITMAP
C0
C0
C0
C0
C0
C0
F8
F8
F8
F8
F8
ENDCHAR
STARTCHAR 259A
ENCODING 9626
SWIDTH 600 0
DWIDTH 5 0
BBX 5 11 0 -3
BITMAP
C0
C0
C0
C0
C0
C0
38
38
38
38
38
ENDCHAR
STARTCHAR 259B
ENCODING 9627
SWIDTH 600 0
DWIDTH 5 0
BBX 5 11 0 -3
BITMAP
F8
F8
F8
F8
F8
F8
C0
C0
C0
C0
C0
ENDCHAR
STARTCHAR 259C
ENCODING 9628
SWIDTH 600 0
DWIDTH 5 0
BBX 5 11 0 -3
BITMAP
F8
F8
F8
F8
F8
F8
38
38
38
38
38
ENDCHAR
STARTCHAR 259D
ENCODING 9629
SWIDTH 600 0
DWIDTH 5 0
BBX 3 6 2 2
BITMAP
E0
E0
E0
E0
E0
E0
ENDCHAR
STARTCHAR 259E
ENCODING 9630
SWIDTH 600 0
DWIDTH 5 0
BBX 5 11 0 -3
BITMAP
38
38
38
38
38
38
C0
C0
C0
C0
C0
ENDCHAR
STARTCHAR 259F
ENCODING 9631
SWIDTH 600 0
DWIDTH 5 0
BBX 5 11 0 -3
BITMAP
38
38
38
38
38
38
F8
F8
F8
F8
F8
ENDCHAR
STARTCHAR 25CA
ENCODING 9674
SWIDTH 600 0
DWIDTH 5 0
BBX 5 6 0 0
BITMAP
20
60
50
98
50
20
ENDCHAR
STARTCHAR 2713
ENCODING 10003
SWIDTH 600 0
DWIDTH 5 0
BBX 5 6 0 0
BITMAP
08
10
90
50
60
60
ENDCHAR
STARTCHAR 274C
ENCODING 10060
SWIDTH 600 0
DWIDTH 5 0
BBX 5 6 0 0
BITMAP
90
58
60
20
50
98
ENDCHAR
STARTCHAR 2B0E
ENCODING 11022
SWIDTH 600 0
DWIDTH 5 0
BBX 5 4 0 1
BITMAP
E0
20
68
30
ENDCHAR
STARTCHAR 2B0F
ENCODING 11023
SWIDTH 600 0
DWIDTH 5 0
BBX 5 4 0 1
BITMAP
20
50
28
E0
ENDCHAR
STARTCHAR 2B10
ENCODING 11024
SWIDTH 600 0
DWIDTH 5 0
BBX 5 4 0 1
BITMAP
38
40
D0
60
ENDCHAR
STARTCHAR 2B11
ENCODING 11025
SWIDTH 600 0
DWIDTH 5 0
BBX 5 4 0 1
BITMAP
40
E0
50
38
ENDCHAR
STARTCHAR F6D7
ENCODING 63191
SWIDTH 0 0
DWIDTH 0 0
BBX 2 2 -1 5
BITMAP
40
C0
ENDCHAR
STARTCHAR F6D8
ENCODING 63192
SWIDTH 0 0
DWIDTH 0 0
BBX 2 2 -1 5
BITMAP
80
C0
ENDCHAR
STARTCHAR FB01
ENCODING 64257
SWIDTH 600 0
DWIDTH 5 0
BBX 4 6 0 0
BITMAP
70
40
F0
50
50
50
ENDCHAR
STARTCHAR FB02
ENCODING 64258
SWIDTH 600 0
DWIDTH 5 0
BBX 4 6 0 0
BITMAP
70
50
F0
50
50
50
ENDCHAR
ENDFONT
